<?xml version="1.0" standalone="no"?>
<!DOCTYPE svg PUBLIC "-//W3C//DTD SVG 1.1//EN" "http://www.w3.org/Graphics/SVG/1.1/DTD/svg11.dtd" >
<svg xmlns="http://www.w3.org/2000/svg">
<metadata></metadata>
<defs>
<font id="glosa_displaybold_italic" horiz-adv-x="1146" >
<font-face units-per-em="2048" ascent="1536" descent="-512" />
<missing-glyph horiz-adv-x="471" />
<glyph unicode="&#xfb01;" horiz-adv-x="1263" d="M-205 -340q6 48 43.5 81.5t93.5 33.5q24 0 46 -11.5t39 -34.5t15 -66t-28 -99h21q24 0 43.5 17.5t32.5 44.5t25 73.5t19.5 90t16.5 108.5l157 1095h-137l2 21l140 10l6 41q14 96 71.5 178.5t139 136.5t179.5 84.5t195 30.5q100 0 177 -24.5t118 -62.5t59.5 -80.5 t12.5 -82.5q-9 -61 -55 -100t-105 -39q-64 0 -91.5 36.5t-20.5 86.5q3 22 15 43.5t36.5 42.5t60.5 27.5t88 -1.5l2 21q-40 45 -116.5 79t-177.5 34q-60 0 -108.5 -20t-82 -55t-59.5 -88t-41.5 -112.5t-26.5 -134.5l-6 -41h338q84 20 141 20q90 0 119 -45.5t16 -138.5 l-116 -805l18 -20l195 53v-20q-100 -44 -191 -66t-143 -22q-89 0 -118.5 46t-16.5 138l118 829h-364l-139 -993q-29 -195 -176.5 -333t-317.5 -138q-80 0 -125.5 34.5t-36.5 96.5z" />
<glyph unicode="&#xfb02;" horiz-adv-x="1263" d="M-205 -340q6 48 43.5 81.5t93.5 33.5q24 0 46 -11.5t39 -34.5t15 -66t-28 -99h21q24 0 43.5 17.5t32.5 44.5t25 73.5t19.5 90t16.5 108.5l157 1095h-137l2 21l140 10l6 41q19 129 99.5 228.5t196 150.5t246.5 51q118 0 218 -63l184 63h20l-202 -1440l18 -20l195 53v-20 q-100 -44 -191 -66t-143 -22q-89 0 -118.5 46t-16.5 138l159 1141q11 79 -20 124.5t-105 45.5q-52 0 -93 -20.5t-69 -54.5t-49.5 -88.5t-34.5 -112t-24 -134.5l-6 -41h199l-5 -31h-198l-139 -993q-29 -195 -176.5 -333t-317.5 -138q-80 0 -125.5 34.5t-36.5 96.5z" />
<glyph unicode="&#xfb03;" horiz-adv-x="1910" d="M-205 -340q6 48 43.5 81.5t93.5 33.5q24 0 46 -11.5t39 -34.5t15 -66t-28 -99h21q24 0 43.5 17.5t32.5 44.5t25 73.5t19.5 90t16.5 108.5l157 1095h-137l2 21l140 10l6 41q14 96 71.5 178.5t139 136.5t179.5 84.5t195 30.5q201 0 304 -96q161 96 344 96q100 0 177 -24.5 t117.5 -62.5t59 -80.5t12.5 -82.5q-9 -61 -55 -100t-105 -39q-64 0 -91.5 36.5t-20.5 86.5q8 51 59 91t142 21l2 21q-40 45 -117 79t-178 34q-60 0 -108.5 -20t-82 -55t-59.5 -88t-41.5 -112.5t-26.5 -134.5l-6 -41h338q84 20 141 20q89 0 118.5 -46t16.5 -138l-116 -805 l18 -20l195 53v-20q-100 -44 -191 -66t-143 -22q-90 0 -119 45.5t-16 138.5l119 829h-365l-139 -993q-18 -128 -93.5 -237.5t-182 -171.5t-216.5 -62q-81 0 -126 34t-36 97q6 48 43.5 81.5t92.5 33.5q19 0 37.5 -6.5t34.5 -22.5t24 -39t2.5 -60.5t-27.5 -82.5h21 q56 0 85.5 83.5t53.5 250.5l156 1095h-377l-139 -993q-29 -195 -176.5 -333t-317.5 -138q-80 0 -125.5 34.5t-36.5 96.5zM594 1024h377l6 41q13 97 70 177.5t145 139.5q-44 39 -115 66t-159 27q-60 0 -108.5 -20t-82 -55t-59.5 -88t-41.5 -112.5t-26.5 -134.5z" />
<glyph unicode="&#xfb04;" horiz-adv-x="1910" d="M-205 -340q6 48 43.5 81.5t93.5 33.5q24 0 46 -11.5t39 -34.5t15 -66t-28 -99h21q24 0 43.5 17.5t32.5 44.5t25 73.5t19.5 90t16.5 108.5l157 1095h-137l2 21l140 10l6 41q14 96 71.5 178.5t139 136.5t179.5 84.5t195 30.5q187 0 293 -88q139 88 314 88q119 0 215 -63 l186 63h21l-203 -1440l18 -20l195 53v-20q-102 -44 -192 -66t-142 -22q-90 0 -119 45.5t-16 138.5l160 1141q11 79 -20.5 124.5t-104.5 45.5q-52 0 -93 -20.5t-69 -54.5t-49.5 -88.5t-35 -112t-24.5 -134.5l-6 -41h199l-4 -31h-199l-141 -993q-18 -128 -93.5 -237.5 t-182 -171.5t-216.5 -62q-81 0 -126 34t-36 97q6 48 43.5 81.5t92.5 33.5q19 0 37.5 -6.5t34.5 -22.5t24 -39t2.5 -60.5t-27.5 -82.5h21q56 0 85.5 83.5t53.5 250.5l156 1095h-377l-139 -993q-29 -195 -176.5 -333t-317.5 -138q-80 0 -125.5 34.5t-36.5 96.5zM594 1024h377 l6 41q29 200 205 326q-104 84 -264 84q-60 0 -108.5 -20t-82 -55t-59.5 -88t-41.5 -112.5t-26.5 -134.5z" />
<glyph horiz-adv-x="0" />
<glyph horiz-adv-x="682" />
<glyph unicode=" "  horiz-adv-x="471" />
<glyph unicode="&#x09;" horiz-adv-x="471" />
<glyph unicode="&#xa0;" horiz-adv-x="471" />
<glyph unicode="!" horiz-adv-x="655" d="M203 121q7 57 55 98t107 41q57 0 92 -41t26 -98q-8 -59 -54.5 -100t-104.5 -41t-93.5 41t-27.5 100zM377 410l14 1024h271l-265 -1024h-20z" />
<glyph unicode="&#x22;" horiz-adv-x="851" d="M395 1556h189l-146 -413h-12zM702 1556h189l-146 -413h-12z" />
<glyph unicode="#" d="M119 369l4 30h326l40 297h-325l4 31h326l47 328h30l-47 -328h297l47 328h31l-47 -328h328l-4 -31h-328l-41 -297h328l-5 -30h-327l-47 -326h-31l47 326h-297l-47 -326h-31l47 326h-325zM479 399h297l41 297h-297z" />
<glyph unicode="$" d="M131 260q8 55 47 93t98 38q76 0 102 -59q24 -54 -9 -110q-40 -69 -132 -73q-16 -1 -32 1l-2 -21q44 -59 123.5 -94t189.5 -35q20 0 66 4l82 582q-18 10 -74 37q-65 29 -113 56.5t-96 67t-76 82.5t-41.5 102t-3.5 128q26 179 170.5 286t355.5 109l27 184h21l-27 -184 q101 -2 179 -28.5t120 -68t60 -88.5t10 -95q-6 -55 -45.5 -94.5t-98.5 -39.5q-76 0 -102 60q-24 55 8 112q40 69 132 73q16 1 32 -1l4 21q-44 57 -120.5 92.5t-180.5 36.5l-78 -545l18 -6q64 -27 116.5 -56t105 -71.5t85.5 -90t49.5 -112t6.5 -137.5q-13 -97 -61 -178 t-118 -134t-154 -84.5t-175 -37.5l-27 -187h-20l25 185h-27q-96 0 -172.5 17t-124 45t-78 65.5t-40.5 75.5t-5 77zM494 1188q-8 -55 5.5 -101.5t46.5 -81t71.5 -59.5t91.5 -49l75 537q-101 -4 -187.5 -65.5t-102.5 -180.5zM604 6q229 41 264 270q14 105 -37 175.5 t-147 123.5z" />
<glyph unicode="%" horiz-adv-x="2007" d="M352 1137q20 132 124.5 224.5t236.5 92.5q127 0 203.5 -93t54.5 -224q-23 -133 -128 -225.5t-237 -92.5q-125 0 -201 93.5t-53 224.5zM504 1137q-43 -295 114 -295q158 0 201 295q41 295 -117 295q-157 0 -198 -295zM694 0l789 1434h28l-786 -1434h-31zM1237 297 q20 132 125 224.5t237 92.5q127 0 202.5 -93t53.5 -224q-22 -133 -126.5 -225t-237.5 -92q-125 0 -200.5 93t-53.5 224zM1389 297q-24 -162 6.5 -228.5t109.5 -66.5q156 0 199 295q41 295 -117 295q-157 0 -198 -295z" />
<glyph unicode="&#x26;" horiz-adv-x="1617" d="M172 362q17 109 112.5 200t272.5 177q-84 116 -113.5 210.5t-15.5 193.5q13 93 78 165.5t155.5 109t188.5 36.5q140 0 228.5 -77.5t70.5 -202.5q-13 -91 -101.5 -175t-250.5 -145l329 -494q124 166 199 377l-221 86l4 21h477l-4 -21l-229 -86q-95 -243 -213 -397 l237 -309l41 -11l-2 -20h-356l-109 147q-193 -167 -405 -167q-183 0 -290 103.5t-83 278.5zM426 420q-13 -92 6.5 -167.5t74.5 -123t138 -47.5q167 0 293 84l-373 557q-49 -48 -87.5 -129t-51.5 -174zM678 1221q-14 -104 16.5 -185t93.5 -168q161 112 189 340q8 38 5 78 t-13 73t-39 54t-74 21q-44 0 -77.5 -20t-53.5 -53.5t-31 -67.5t-16 -72z" />
<glyph unicode="'" horiz-adv-x="544" d="M395 1556h189l-146 -413h-12z" />
<glyph unicode="(" horiz-adv-x="768" d="M288 209.5q-15 196.5 9 394.5q42 298 194.5 606.5t393.5 540.5h20q-177 -245 -292 -546t-158 -601q-43 -279 -11.5 -590t138.5 -557h-21q-117 156 -187.5 356t-85.5 396.5z" />
<glyph unicode=")" horiz-adv-x="768" d="M31 -543q176 246 291.5 547.5t158.5 599.5q25 198 22.5 392.5t-40.5 392t-109 362.5h21q117 -156 187.5 -356t85.5 -396.5t-9 -394.5q-42 -298 -194.5 -606.5t-393.5 -540.5h-20z" />
<glyph unicode="*" horiz-adv-x="905" d="M326 1163q3 22 19 36.5t38 14.5q8 0 104 -21.5t115 -21.5q-26 16 -95.5 66.5t-76.5 60.5q-14 15 -11.5 35t19.5 35t37.5 16t34.5 -14q15 -23 96 -192q3 21 -2 121t-4 106q3 22 18 35.5t37 13.5t35 -13t10 -36q-1 -9 -35.5 -109t-37.5 -118q4 5 42.5 55.5t70 90t40.5 46.5 q17 15 36.5 15t33.5 -15q13 -14 10.5 -34.5t-20.5 -37.5q-8 -7 -51 -33t-97.5 -58t-60.5 -36q21 0 120 21.5t109 21.5q22 0 34 -14.5t9 -36.5t-19 -35.5t-38 -13.5q-8 0 -103 18.5t-114 18.5q153 -102 170 -119q14 -15 11 -36.5t-22 -34.5q-17 -15 -37.5 -15t-33.5 15 q-12 14 -94 184q-2 -18 4.5 -114t5.5 -103q-3 -22 -19.5 -36.5t-38.5 -14.5t-34 14.5t-9 36.5q1 7 34.5 103t35.5 116q-5 -7 -42.5 -55.5t-68 -87t-36.5 -43.5q-17 -15 -38.5 -15t-35.5 15q-12 15 -8.5 35.5t20.5 35.5q4 4 203 119q-21 0 -120.5 -18.5t-106.5 -18.5 q-22 0 -34 13.5t-9 35.5z" />
<glyph unicode="+" d="M264 532l4 31h367l51 369h31l-51 -369h368l-4 -31h-368l-52 -366h-30l51 366h-367z" />
<glyph unicode="," horiz-adv-x="686" d="M162 -326q106 38 172 124q64 84 40 150q-29 79 -179 79l32 233q82 11 141 -2.5t88.5 -46.5t40 -74t3.5 -90q-19 -138 -122 -246.5t-210 -146.5z" />
<glyph unicode="-" d="M264 532l4 31h766l-4 -31h-766z" />
<glyph unicode="." horiz-adv-x="655" d="M203 121q7 57 55 98t107 41q57 0 92 -41t26 -98q-8 -59 -54.5 -100t-104.5 -41t-93.5 41t-27.5 100z" />
<glyph unicode="/" horiz-adv-x="983" d="M256 0l633 1454h41l-633 -1454h-41z" />
<glyph unicode="0" horiz-adv-x="1228" d="M185 536.5q-4 89.5 12 180.5q15 106 49.5 210t90 199.5t125.5 168t162 116t193 43.5q85 0 155.5 -30.5t118 -83.5t83 -124t50.5 -153t19.5 -170.5t-10.5 -175.5q-15 -106 -50 -210t-91 -199.5t-126 -168t-162.5 -116t-193.5 -43.5q-85 0 -155 29.5t-118.5 81t-83.5 122 t-49.5 152.5t-18.5 171.5zM457 420q-7 -126 4 -223.5t49.5 -147t103.5 -49.5t117 49.5t90.5 147t66.5 223t52 297.5t31 297.5t-4 223.5t-49 147t-103 49t-117 -49.5t-91 -147t-67 -223.5t-51 -297q-25 -171 -32 -297z" />
<glyph unicode="1" horiz-adv-x="860" d="M68 0l2 20l229 11l188 1345l-231 -35l2 21l490 92h20l-199 -1423l226 -11l-2 -20h-725z" />
<glyph unicode="2" horiz-adv-x="1044" d="M76 0l2 20q111 73 205.5 147t164.5 138.5t128 132t97 122t70 115t48.5 103.5t31.5 95.5t19.5 83t11.5 73.5q15 106 -2 189t-72.5 135.5t-146.5 52.5q-82 0 -144.5 -25t-126.5 -82l-4 -20q104 23 143 -38q30 -47 3 -109q-28 -65 -95 -83q-21 -6 -44 -6q-47 0 -80 35 t-25 95q7 49 43 97.5t94 90t145.5 67t186.5 25.5q72 0 132 -13t101.5 -36t74.5 -54t51 -67.5t29.5 -76.5t11 -80.5t-4.5 -79.5q-8 -57 -28.5 -116.5t-73.5 -147t-130.5 -172.5t-211 -189t-303.5 -201l-2 -20l643 10l-29 -211h-913z" />
<glyph unicode="3" horiz-adv-x="1095" d="M104 266q7 53 49 88t97 35q74 0 101 -59q24 -55 -9 -113q-40 -72 -136 -78q-15 -1 -32 0l-4 -20q105 -119 287 -119q128 0 212.5 100t110.5 285q14 96 -5.5 178.5t-77 136.5t-144.5 54h-51l4 24h45q67 0 120.5 27.5t86.5 73t53 97t27 107.5q16 110 -36.5 189.5 t-160.5 79.5q-59 0 -110.5 -18.5t-86 -43.5t-67.5 -65.5t-51 -70t-39 -71.5h-21q26 67 70.5 131t104.5 118.5t139.5 88t164.5 33.5q183 0 281 -89t78 -235q-20 -135 -137.5 -230t-329.5 -128v-10q218 -11 330 -104t88 -261q-14 -101 -68.5 -182t-135.5 -131.5t-180 -77 t-208 -26.5q-93 0 -167 25t-117 66t-62.5 91.5t-12.5 103.5z" />
<glyph unicode="4" horiz-adv-x="1167" d="M113 328l4 32l821 1026l199 68l-154 -1102h166l-4 -24h-166l-45 -328h-270l45 328h-596zM158 352h555l116 844h-20l-649 -823z" />
<glyph unicode="5" horiz-adv-x="1095" d="M104 266q6 52 47.5 87.5t100.5 35.5q72 0 98 -59q25 -55 -7 -112q-40 -72 -135 -76l-38 1l-2 -20q103 -123 287 -123q71 0 130 34.5t99 93.5t66 130t38 152q9 48 4 98t-17 96t-43 87t-74 71t-109.5 47.5t-149.5 17.5h-65l106 607h709l-31 -230h-696l-62 -356 q183 49 310.5 34t208.5 -58.5t123 -118t54.5 -144.5t2.5 -137q-28 -197 -189 -320.5t-407 -123.5q-93 0 -167 25.5t-116.5 66.5t-62.5 91.5t-13 102.5z" />
<glyph unicode="6" horiz-adv-x="1157" d="M172 547q32 226 156 418.5t311.5 319t409.5 169.5l2 -20q-191 -43 -347 -221t-202 -408l16 -6q53 41 125.5 68.5t151.5 27.5q90 0 160 -36t110 -97t55.5 -140.5t3.5 -168.5q-20 -139 -104.5 -249t-201 -167t-240.5 -57q-150 0 -251 78.5t-139 205.5t-16 283zM437.5 241 q7.5 -108 45 -174.5t101.5 -66.5q181 0 243 430q14 81 12.5 156t-14.5 132.5t-47 92.5t-86 35q-51 0 -105 -29t-95 -69q-34 -135 -48 -267t-6.5 -240z" />
<glyph unicode="7" horiz-adv-x="1003" d="M219 1079l60 355h878l-4 -21l-666 -1413h-266l813 1219l2 20l-737 -20l-59 -140h-21z" />
<glyph unicode="8" horiz-adv-x="1157" d="M152 356q16 114 115 202t276 116q-274 153 -240 403q17 116 93 203.5t181 130.5t222 43q169 0 273.5 -91.5t82.5 -252.5q-14 -100 -109.5 -180t-242.5 -109q190 -84 257.5 -190.5t47.5 -239.5q-18 -130 -101.5 -225.5t-200 -140.5t-249.5 -45q-201 0 -315.5 97.5 t-89.5 278.5zM403 360q-22 -159 27 -259.5t156 -100.5q100 0 164 91.5t84 232.5q15 110 -51.5 188t-221.5 150q-133 -119 -158 -302zM565 1149q-8 -56 4.5 -103.5t32 -77.5t57.5 -60t60.5 -42.5t62.5 -32.5q3 -1 4 -2q51 41 90.5 118t53.5 181q18 130 -20 217t-124 87 q-85 0 -144 -82.5t-77 -202.5z" />
<glyph unicode="9" horiz-adv-x="1157" d="M233 981q20 139 104 249t200.5 167t240.5 57q150 0 251 -78.5t139 -205.5t16 -283q-47 -340 -293 -591t-584 -316v20q190 43 346.5 221.5t200.5 407.5l-16 6q-51 -41 -124.5 -68.5t-152.5 -27.5q-120 0 -201.5 62t-112.5 161t-14 219zM517 848q2 -75 15 -132.5 t47.5 -92.5t86.5 -35q49 0 103 29t95 69q34 136 48.5 267.5t7.5 239.5t-44.5 174.5t-101.5 66.5q-65 0 -115.5 -58t-81.5 -151t-49 -221q-13 -81 -11 -156z" />
<glyph unicode=":" horiz-adv-x="655" d="M217 227q9 57 56 98.5t104 41.5q58 0 94.5 -41.5t28.5 -98.5q-9 -58 -56 -99.5t-104 -41.5q-59 0 -94.5 41.5t-28.5 99.5zM297 799q9 58 57 99.5t105 41.5q58 0 93.5 -41t27.5 -100q-7 -58 -55 -100t-105 -42q-58 0 -93.5 41.5t-29.5 100.5z" />
<glyph unicode=";" horiz-adv-x="686" d="M162 -326q106 38 172 124q64 84 40 150q-29 79 -179 79l32 233q82 11 141 -2.5t88.5 -46.5t40 -74t3.5 -90q-19 -138 -122 -246.5t-210 -146.5zM307 799q9 58 57 99.5t105 41.5q58 0 93.5 -41t27.5 -100q-7 -58 -55 -100t-105 -42q-58 0 -93.5 41.5t-29.5 100.5z" />
<glyph unicode="&#x3c;" horiz-adv-x="983" d="M264 528l6 41l641 379l-4 -20l-465 -377l359 -381l-2 -20z" />
<glyph unicode="=" d="M244 389l4 31h766l-4 -31h-766zM285 676l4 31h766l-4 -31h-766z" />
<glyph unicode="&#x3e;" horiz-adv-x="983" d="M225 150l2 20l465 381l-358 377l4 20l534 -379l-6 -41z" />
<glyph unicode="?" horiz-adv-x="1097" d="M272 1167q18 120 155 203.5t329 83.5q109 0 192.5 -32t129.5 -85t65.5 -117.5t9.5 -134.5q-6 -45 -25 -88.5t-59 -90t-96.5 -84.5t-144 -69t-195.5 -46l-51 -297h-21l33 311q266 76 307 350q21 150 -48 244t-212 94q-73 0 -146 -30t-114 -74l-4 -21q104 14 138 -51 q27 -51 -5 -111q-33 -64 -105 -76q-13 -2 -26 -2q-52 0 -83.5 36t-23.5 87zM387 121q7 57 55 98t107 41q57 0 92.5 -41t26.5 -98q-7 -58 -54 -99.5t-106 -41.5q-58 0 -93.5 41t-27.5 100z" />
<glyph unicode="@" horiz-adv-x="1810" d="M201 350q20 150 84.5 280.5t158 225.5t209.5 163t241 102t251 34q105 0 199.5 -23.5t174 -73.5t133.5 -121t76.5 -173.5t4.5 -224.5q-17 -126 -70 -233t-125.5 -176t-157 -107.5t-168.5 -38.5q-78 0 -111 42.5t-28 108.5q-41 -69 -111 -112t-139 -43q-80 0 -131 46.5 t-66 117.5t-4 154.5t48 156.5q67 139 193 237.5t247 98.5q68 0 102.5 -43t26.5 -103h6l205 123h20l-172 -528q-10 -29 -15 -46t-12 -45t-6 -45.5t5.5 -35.5t19.5 -26.5t39 -8.5q46 0 105 36t115.5 98t102 158.5t60.5 204.5q17 124 -6 226.5t-76.5 171.5t-132 116.5t-169 69 t-191.5 21.5q-132 0 -254 -66t-212.5 -175t-152 -249.5t-82.5 -290.5q-15 -117 -11.5 -217.5t35 -182.5t85.5 -140t140 -89.5t198 -31.5q124 0 269.5 52t260.5 136l8 -18q-125 -92 -284.5 -144.5t-317.5 -52.5q-142 0 -266 53.5t-208.5 144t-124 218t-19.5 268.5zM808 162.5 q-1 -56.5 18.5 -91t60.5 -34.5q119 0 186 156q53 130 111 329q31 84 27.5 135t-23.5 73t-51 22q-148 0 -269 -328q-28 -70 -43.5 -137.5t-16.5 -124z" />
<glyph unicode="A" horiz-adv-x="1433" d="M6 0l2 20l234 86l561 1215l192 133l336 -1423l99 -11l-3 -20h-579l2 20l168 11l-96 481h-463l-185 -406l213 -86l-2 -20h-479zM467 537h451l-127 651h-21z" />
<glyph unicode="B" horiz-adv-x="1263" d="M68 0l2 20l147 11l193 1372l-146 10l4 21h594q224 0 334 -96q91 -80 91 -202q0 -25 -3 -51q-18 -129 -149 -221.5t-355 -111.5v-4q114 -1 202 -25t140 -61t83 -86.5t39 -97.5q5 -28 6 -58q0 -20 -3 -41q-25 -173 -162 -276t-362 -103h-655zM485 20h172q259 0 308 369 q7 44 7 83q0 104 -47 170q-64 92 -223 91h-116zM588 754h69q158 0 239.5 80.5t102.5 230.5q8 60 8 109q0 239 -196 239h-131z" />
<glyph unicode="C" horiz-adv-x="1331" d="M176 717q22 159 92.5 296t175.5 234t244 152t293 55q139 0 259 -38t190 -85l-39 -342h-21l-90 234q-27 79 -101.5 145t-172.5 66q-211 0 -349.5 -183t-187.5 -534q-19 -134 -20 -243q0 -180 53 -293q84 -181 303 -181q100 0 195 65t145 146l158 233h20l-66 -342 q-83 -47 -213.5 -84.5t-269.5 -37.5q-205 0 -352 94q-148 94 -212 262q-44 115 -44 250q0 63 10 131z" />
<glyph unicode="D" horiz-adv-x="1515" d="M68 0l2 20l147 11l193 1372l-146 10l4 21h629q220 0 375.5 -84.5t227.5 -247.5q50 -114 50 -256q0 -62 -10 -129q-29 -209 -145.5 -372t-299 -254t-399.5 -91h-628zM485 20h213q92 0 174.5 41.5t143.5 110.5t109 160t77.5 188t44.5 197q14 111 14 211q-1 4 -1 7 q0 103 -26.5 190.5t-71 151.5t-119 100t-171.5 36h-192z" />
<glyph unicode="E" horiz-adv-x="1228" d="M68 0l2 20l147 11l193 1372l-146 10l4 21h1053l-39 -342h-20l-146 311l-436 10l-96 -686l323 8l133 242h21l-72 -510h-20l-66 231l-321 9l-97 -687l459 11l242 311h20l-65 -342h-1073z" />
<glyph unicode="F" horiz-adv-x="1177" d="M68 0l2 20l147 11l193 1372l-146 10l4 21h1053l-39 -342h-20l-146 311l-436 10l-100 -727l321 8l133 242h21l-72 -510h-20l-66 231l-322 9l-88 -635l144 -11l-2 -20h-561z" />
<glyph unicode="G" horiz-adv-x="1454" d="M176 717q22 159 92.5 296t175.5 234t244 152t293 55q139 0 259 -38t190 -85l-39 -342h-21l-90 234q-27 78 -103 144.5t-171 66.5q-211 0 -349.5 -183t-187.5 -534q-17 -120 -17 -221q0 -182 54 -305q85 -191 272 -191q141 0 256 76l68 487l-141 10l2 21h526l-2 -21 l-113 -10l-59 -420q-82 -55 -241.5 -109t-299.5 -54q-205 0 -352 94t-212 262q-44 115 -44 250q0 63 10 131z" />
<glyph unicode="H" horiz-adv-x="1597" d="M68 0l2 20l147 11l193 1372l-146 10l4 21h561l-4 -21l-145 -10l-94 -662h631l94 662l-146 10l4 21h562l-5 -21l-145 -10l-192 -1372l143 -11l-2 -20h-561l2 20l147 11l96 686h-630l-97 -686l144 -11l-2 -20h-561z" />
<glyph unicode="I" horiz-adv-x="696" d="M68 0l2 20l147 11l193 1372l-146 10l4 21h561l-4 -21l-145 -10l-193 -1372l144 -11l-2 -20h-561z" />
<glyph unicode="J" horiz-adv-x="839" d="M55 109q10 72 76 103q30 14 57.5 14t53.5 -14q51 -26 51 -89q0 -12 -2 -26q-5 -38 -27 -83h21q24 0 43.5 17.5t32.5 44.5t25 73.5t19.5 90t16.5 108.5l149 1055l-143 10l4 21h559l-4 -21l-143 -10l-139 -987q-15 -112 -89 -213.5t-182 -162t-217 -60.5q-86 0 -128 36 q-35 29 -35 75q0 9 1 18z" />
<glyph unicode="K" horiz-adv-x="1505" d="M68 0l2 20l147 11l193 1372l-146 10l4 21h561l-4 -21l-145 -10l-94 -666h125l559 590l-217 86l4 21h540l-4 -21l-282 -86l-441 -450l478 -846l133 -11l-2 -20h-635l2 20l162 11l-365 686h-59l-97 -686l144 -11l-2 -20h-561z" />
<glyph unicode="L" horiz-adv-x="1187" d="M68 0l2 20l147 11l193 1372l-146 10l4 21h561l-4 -21l-145 -10l-195 -1383l459 11l242 311h20l-65 -342h-1073z" />
<glyph unicode="M" horiz-adv-x="1802" d="M68 0l2 20l231 86l182 1297l-219 10l4 21h488l278 -1002h21l461 1002h419l-4 -21l-145 -10l-193 -1372l144 -11l-2 -20h-561l2 20l147 11l178 1274h-20l-596 -1315h-41l-344 1247h-21l-147 -1131l217 -86l-2 -20h-479z" />
<glyph unicode="N" horiz-adv-x="1495" d="M68 0l2 20l231 86l182 1297l-219 10l4 21h467l514 -971h21l114 864l-219 86l4 21h480l-4 -21l-230 -86l-188 -1337h-41l-684 1253h-21l-149 -1137l217 -86l-2 -20h-479z" />
<glyph unicode="O" horiz-adv-x="1597" d="M176 717q22 157 100 296t190 234.5t252 151t283 55.5t267.5 -55.5t209.5 -151.5q86 -97 126 -235q26 -89 26 -186q0 -53 -8 -109q-22 -157 -101 -295.5t-191 -234.5t-252 -151.5t-283 -55.5t-267.5 55.5t-209.5 150.5q-84 96 -124 235q-25 89 -26 186q0 54 8 110z M469 717q-19 -127 -19 -233q0 -180 56 -298q88 -186 293 -186t343 185t187 532q18 125 18 228q0 183 -56 303q-87 186 -292 186q-206 0 -344.5 -185.5t-185.5 -531.5z" />
<glyph unicode="P" horiz-adv-x="1249" d="M68 0l2 20l147 11l193 1372l-146 10l4 21h656q224 0 332 -108q88 -87 88 -217q0 -31 -5 -65q-9 -65 -35 -125.5t-77 -119t-121 -102.5t-173.5 -70.5t-227.5 -26.5h-138l-80 -569l144 -11l-2 -20h-561zM571 621h109q174 0 260 99t115 304q11 76 11 137q0 95 -27 153 q-44 96 -187 99h-172z" />
<glyph unicode="Q" horiz-adv-x="1597" d="M176 717q22 157 100 296t190 234.5t252 151t283 55.5t267.5 -55.5t210 -151.5t125.5 -235q26 -89 26 -186q0 -53 -8 -109q-15 -103 -55 -200.5t-100.5 -178t-136 -148.5t-165 -114t-183.5 -72q-90 -25 -185 -25q-5 0 -11 1q-101 1 -198 30l-2 -12l940 -309l-2 -21 l-301 -139l-797 563q-136 97 -207 263q-51 119 -51 254q0 53 8 108zM469 717q-19 -127 -19 -233q0 -181 56 -298q87 -186 293 -186q205 0 343 185t187 532q18 125 18 228q0 185 -56 303q-87 186 -292 186q-206 0 -344.5 -185.5t-185.5 -531.5z" />
<glyph unicode="R" horiz-adv-x="1372" d="M68 0l2 20l147 11l193 1372l-146 10l4 21h635q225 0 333 -106q89 -86 90 -218q0 -29 -5 -61q-9 -65 -43 -125.5t-92 -113.5t-151.5 -88t-209.5 -42l-4 -21q136 -11 223 -172l226 -456l78 -11l-2 -20h-390l-297 655h-86l-86 -624l144 -11l-2 -20h-561zM578 676h110 q88 0 151 24.5t101.5 74t60 109.5t33.5 144q10 66 10 120q0 52 -12 100q-12 50 -35 86t-65.5 57.5t-100.5 21.5h-151z" />
<glyph unicode="S" horiz-adv-x="1105" d="M96 -10l54 454h20l39 -143q38 -151 121.5 -226t204.5 -75q119 0 205.5 69t107.5 207q3 23 3 45q-1 43 -13 81q-20 56 -67.5 97.5t-91 67t-110.5 56.5q-66 30 -114 57t-97 66.5t-78 82.5t-43 102q-8 34 -8 72q0 27 4 56q26 180 175 287.5t362 107.5q95 0 185 -29.5 t149 -81.5l35 101h20l-51 -424h-21l-40 147q-38 138 -105.5 202.5t-171.5 64.5q-32 0 -68 -8t-75.5 -27t-71.5 -46.5t-56.5 -70t-31.5 -94.5q-3 -18 -2 -35q0 -29 7 -56q12 -42 34.5 -72t61.5 -58t73.5 -45.5t83.5 -38.5q64 -27 116.5 -56t104.5 -71.5t85.5 -90t49.5 -111.5 q10 -40 9 -83q0 -27 -3 -55q-19 -139 -100.5 -239.5t-199 -148.5t-257.5 -48q-206 0 -374 137l-39 -127h-21z" />
<glyph unicode="T" horiz-adv-x="1228" d="M201 1092l57 342h1114l-39 -342h-20l-148 307l-219 10l-192 -1378l143 -11l-2 -20h-561l2 20l147 11l193 1378l-223 -10l-232 -307h-20z" />
<glyph unicode="U" horiz-adv-x="1556" d="M244 1413l4 21h561l-4 -21l-146 -10l-127 -905q-9 -66 -9 -123q0 -340 327 -340q196 0 319.5 139.5t155.5 372.5l111 780l-209 86l4 21h479l-4 -21l-240 -86l-110 -774q-38 -278 -190 -425.5t-402 -147.5q-286 0 -410 151q-95 116 -95 302q0 57 9 120l121 850z" />
<glyph unicode="V" horiz-adv-x="1433" d="M203 1413l4 21h579l-4 -21l-166 -10l230 -1139h20l492 1063l-213 86l4 21h479l-4 -21l-233 -86l-625 -1337h-129l-334 1413z" />
<glyph unicode="W" horiz-adv-x="2068" d="M203 1413l4 21h567l-4 -21l-154 -10l199 -1135h21l313 666l-88 469l-113 10l4 21h574l-4 -21l-148 -10l170 -1135h21l428 1059l-213 86l4 21h479l-4 -21l-234 -86l-546 -1337h-160l-162 891l-61 -127l-367 -764h-143l-283 1413z" />
<glyph unicode="X" horiz-adv-x="1454" d="M27 0l2 20l231 86l451 531l-320 766l-137 10l4 21h612l-4 -21l-151 -10l231 -551l377 475l-219 86l4 21h489l-4 -21l-229 -86l-408 -500l338 -796l136 -11l-3 -20h-632l2 20l170 11l-246 583l-420 -508l238 -86l-2 -20h-510z" />
<glyph unicode="Y" horiz-adv-x="1392" d="M203 1413l4 21h567l-4 -21l-133 -10l262 -766h21l403 690l-199 86l4 21h459l-4 -21l-219 -86l-440 -735l-78 -561l143 -11l-2 -20h-561l2 20l147 11l66 467l-322 905z" />
<glyph unicode="Z" horiz-adv-x="1228" d="M68 0l2 20l944 1373l2 20l-486 -10l-247 -311h-21l57 342h1022l-4 -21l-931 -1372l-3 -21l537 11l246 311h20l-76 -342h-1062z" />
<glyph unicode="[" horiz-adv-x="778" d="M102 -532l322 2283h524l-4 -20h-328l-315 -2243h328l-2 -20h-525z" />
<glyph unicode="\" horiz-adv-x="983" d="M459 1454h41l227 -1454h-41z" />
<glyph unicode="]" horiz-adv-x="778" d="M102 -532l2 20h328l316 2243h-328l4 20h524l-321 -2283h-525z" />
<glyph unicode="^" horiz-adv-x="1044" d="M344 1004l375 471h20l240 -471h-21l-260 256l-333 -256h-21z" />
<glyph unicode="_" horiz-adv-x="1249" d="M170 -133l4 31h868l-4 -31h-868z" />
<glyph unicode="`" horiz-adv-x="755" d="M397 1495h236l65 -369h-20z" />
<glyph unicode="a" horiz-adv-x="1169" d="M135 512q27 161 118 284t216.5 185.5t263.5 62.5q98 0 180 -32l205 32h21l-140 -989l19 -20l192 53v-20q-101 -44 -190 -66t-141 -22q-91 0 -119 47q-16 27 -15 67q0 31 9 70l26 110h-20q-53 -134 -135 -214t-191 -80q-165 0 -251 152q-60 105 -60 247q0 63 12 133z M416 512q-14 -94 -15 -169q1 -85 19 -147q34 -118 112 -118q90 0 158 110t94 297l72 498q-56 41 -129 41q-99 0 -188.5 -144.5t-122.5 -367.5z" />
<glyph unicode="b" horiz-adv-x="1165" d="M160 88l194 1366h-178v21l434 20h21l-125 -745h20q53 134 136 214t192 80q107 0 184.5 -68.5t108.5 -190.5q17 -68 17 -144q0 -62 -11 -129q-28 -161 -119 -284t-216 -185.5t-263 -62.5q-67 0 -177 23.5t-218 84.5zM430 41q56 -41 129 -41q100 0 189 144t122 368 q14 94 14 169q0 85 -18 147q-34 118 -112 118q-90 0 -158 -110t-94 -297z" />
<glyph unicode="c" horiz-adv-x="1026" d="M131 506q18 126 79.5 230t147.5 170t186 102t201 36q163 0 239 -76q63 -63 63 -150q0 -17 -3 -36q-7 -54 -48.5 -90.5t-92.5 -36.5q-78 0 -105 60q-10 23 -10 46q0 31 18 62q39 68 131 70q19 1 40 -2l2 20q-51 105 -199 105q-141 0 -241 -117t-129 -324q-8 -55 -8 -103 q0 -129 56 -206q76 -106 220 -106q100 0 176.5 48.5t124.5 119.5h20q-25 -69 -64.5 -129.5t-95 -110.5t-130.5 -79t-160 -29q-120 0 -209.5 43t-138.5 117t-67 168q-10 51 -10 105q0 45 7 93z" />
<glyph unicode="d" horiz-adv-x="1169" d="M135 512q27 161 118 284t216.5 185.5t263.5 62.5q59 0 127 -18l62 428h-177v21l435 20h20l-201 -1440l19 -20l192 53v-20q-101 -44 -190 -66t-141 -22q-91 0 -119 47q-16 27 -15 67q0 31 9 70l26 110h-20q-53 -134 -135 -214t-191 -80q-165 0 -251 152q-60 105 -60 247 q0 63 12 133zM416 512q-14 -94 -15 -169q1 -85 19 -147q34 -118 112 -118q90 0 158 110t94 297l72 498q-56 41 -129 41q-99 0 -188.5 -144.5t-122.5 -367.5z" />
<glyph unicode="e" horiz-adv-x="1015" d="M131 506q18 126 79.5 230t147.5 170t186 102t201 36q168 0 245 -99q45 -58 46 -128q0 -32 -10 -67q-31 -120 -157 -200q-145 -92 -359 -92q-52 0 -109 5q3 -149 78.5 -226t198.5 -77q100 0 176.5 48.5t124.5 119.5h20q-25 -69 -64.5 -129.5t-95 -110.5t-130.5 -79 t-160 -29q-120 0 -209.5 43t-138.5 117t-67 168q-10 51 -10 105q0 45 7 93zM401 479q22 -2 43 -1q165 0 278 118q92 96 113 223q5 29 5 55q0 71 -37 110q-29 32 -76 32q-108 0 -198.5 -119t-118.5 -322q-9 -53 -9 -96z" />
<glyph unicode="f" horiz-adv-x="684" d="M-205 -340q6 48 43.5 81.5t93.5 33.5q24 0 46 -11.5t39 -34.5q15 -21 15 -57v-9q-2 -43 -28 -99h21q24 0 43.5 17.5t32.5 44.5t25 73.5t19.5 90t16.5 108.5l157 1095h-137l2 21l140 10l4 35q16 111 89.5 212.5t181 162.5t216.5 61q80 0 125 -35q38 -28 38 -76 q0 -10 -1 -20q-8 -49 -44.5 -82t-92.5 -33q-18 0 -36.5 6.5t-35 22.5t-24.5 39t-3 60.5t27 82.5h-20q-56 0 -86 -84t-54 -250l-14 -102h240l-5 -31h-239l-139 -993q-29 -195 -176.5 -333t-317.5 -138q-80 0 -125 35q-38 28 -38 76q0 10 1 20z" />
<glyph unicode="g" horiz-adv-x="1126" d="M8 -248q10 71 79 126t177 85l4 21q-26 8 -48 19.5t-43.5 29.5t-31.5 47q-7 20 -7 44q0 9 1 19q19 117 242 205l4 21q-95 37 -154 124q-48 70 -48 152q0 19 3 39q22 157 160.5 258.5t327.5 101.5q138 0 260 -65q101 104 227 104q60 0 93 -32q28 -26 28 -63q0 -9 -2 -19 q-10 -66 -70 -90q-24 -10 -47 -10q-27 0 -52 15q-40 26 -40 77q0 18 5 40q6 25 20 52h-2q-31 0 -72 -24q-43 -25 -76 -60q60 -49 88 -124q20 -54 20 -109q0 -22 -3 -44q-23 -165 -156.5 -264.5t-321.5 -99.5q-34 0 -84.5 8t-74.5 20q-59 -43 -64 -86q-5 -34 24 -50.5 t113 -22.5l297 -23q168 -11 236 -81q54 -57 54 -139q0 -19 -3 -40q-24 -165 -207.5 -275t-451.5 -110q-217 0 -318 60q-88 53 -88 138q0 12 2 25zM180 -225q-2 -17 -2 -32q0 -79 58 -131q70 -63 215 -63q188 0 293 63t118 155q1 11 1 22q0 62 -45 99q-53 43 -177 53l-348 32 q-97 -93 -113 -198zM455 686q-2 -42 -2 -78q0 -72 9 -123q14 -76 44.5 -106.5t79.5 -30.5q90 0 137 81.5t59 262.5q4 54 4 98q0 108 -21 160q-29 74 -103 74q-185 0 -207 -338z" />
<glyph unicode="h" horiz-adv-x="1179" d="M158 0l202 1454h-176v21l432 20h21l-150 -850h21q75 210 182 304.5t230 94.5q191 0 192 -214q0 -42 -8 -93l-94 -682l18 -20l193 53v-20q-100 -44 -191 -66t-143 -22q-90 0 -119 46q-20 31 -20 85q0 24 4 53l92 649q5 33 5 58q0 32 -8 51q-14 34 -59 34 q-36 0 -78.5 -35.5t-85.5 -103.5t-81 -185.5t-58 -264.5l-51 -367h-270z" />
<glyph unicode="i" horiz-adv-x="606" d="M82 936v20q102 44 192 66t142 22q90 0 119 -46q20 -31 20 -85q0 -24 -4 -53l-117 -805l19 -20l194 53v-20q-100 -44 -191 -66t-143 -22q-89 0 -119 46q-20 32 -20 86q0 24 4 52l117 805l-19 20zM313 1346q9 67 64 114t123 47t109 -47q34 -39 33 -91q0 -11 -1 -23 q-10 -69 -64 -116.5t-122 -47.5q-67 0 -109 48q-34 39 -35 92q0 12 2 24z" />
<glyph unicode="j" horiz-adv-x="579" d="M-225 -340q8 48 45 81.5t92 33.5q18 0 36.5 -6.5t34 -22.5t23.5 -39t2.5 -60.5t-26.5 -82.5h18q58 0 87.5 90t59.5 301l146 1014l-19 20l-194 -53v20q102 44 193 66t143 22q89 0 118 -46q21 -33 21 -86q0 -24 -4 -52l-117 -805q-17 -119 -66.5 -219.5t-117.5 -166.5 t-149.5 -103t-163.5 -37q-80 0 -125 35q-38 28 -38 76q0 10 1 20zM311 1346q9 67 64 114t123 47q69 0 110 -47q33 -38 33 -90q0 -12 -2 -24q-9 -69 -63.5 -116.5t-122.5 -47.5t-109 48q-35 39 -35 92q0 12 2 24z" />
<glyph unicode="k" horiz-adv-x="1142" d="M150 0l202 1454h-123l4 21l377 20h21l-209 -1495h-272zM512 541q177 41 337 114.5t204 126.5v21q-26 -4 -48 -4q-81 0 -120 51q-24 31 -24 66q0 21 9 44q23 61 90 79q21 5 44 5q66 0 104.5 -36.5t38.5 -102.5q0 -94 -95 -168t-282 -145v-21l272 -526l142 43v-20 q-197 -88 -279 -88q-46 0 -81 11.5t-60 35.5t-41.5 50t-34.5 66z" />
<glyph unicode="l" horiz-adv-x="593" d="M166 164l182 1290h-176v21l432 20h21l-203 -1440l18 -20l195 53v-20q-100 -44 -191 -66t-143 -22q-89 0 -119 46q-20 32 -20 86q0 24 4 52z" />
<glyph unicode="m" horiz-adv-x="1753" d="M82 936v20q102 44 192 66t142 22q133 0 133 -113q0 -31 -10 -71l-50 -215h21q50 143 119.5 234.5t140.5 128t150 36.5q191 0 191 -217q0 -43 -7 -94l-4 -35h4q144 346 389 346q193 0 193 -219q0 -40 -7 -88l-96 -682l19 -20l192 53v-20q-180 -76 -307 -84q-12 -1 -24 -1 q-40 0 -74 13q-47 14 -61 56q-8 24 -7 57q0 25 4 55l92 649q3 35 5 66.5t-14 54t-52 22.5q-62 0 -125 -83t-107.5 -206.5t-62.5 -252.5l-57 -414h-273l113 813q3 29 3 52q-1 33 -7 55q-12 36 -54 36q-93 0 -183 -170t-128 -450l-45 -336h-272l133 969l-19 20z" />
<glyph unicode="n" horiz-adv-x="1179" d="M82 936v20q102 44 192 66t142 22q133 0 133 -113q0 -31 -10 -71l-50 -215h21q50 143 119.5 234.5t140.5 128t150 36.5q193 0 193 -219q0 -40 -7 -88l-96 -682l18 -20l193 53v-20q-100 -44 -191 -66t-143 -22q-89 0 -119 46q-20 32 -20 86q0 24 4 52l92 649q5 33 5 58 q0 32 -8 51q-14 34 -59 34q-36 0 -78 -35.5t-85.5 -103.5t-81.5 -185.5t-58 -264.5l-49 -367h-272l133 969l-19 20z" />
<glyph unicode="o" horiz-adv-x="1097" d="M131 512q35 245 187.5 388.5t365.5 143.5q214 0 328 -144q87 -110 87 -279q0 -52 -9 -109q-35 -244 -188 -388t-367 -144q-215 0 -327 144q-86 110 -85 278q0 52 8 110zM412 138q26 -138 127 -138t162.5 131t97.5 381q22 162 22 275q0 112 -34 174q-34 63 -105 63 q-100 0 -162 -132t-96 -380q-23 -140 -22 -245q-1 -73 10 -129z" />
<glyph unicode="p" horiz-adv-x="1167" d="M-47 -451l2 21l141 10l195 1389l-19 20l-192 -53v20q102 44 192 66t142 22q90 0 117 -47q15 -26 15 -66q0 -32 -9 -71l-27 -110h20q53 134 135 214t191 80q165 0 251 -152q60 -105 60 -247q0 -63 -12 -133q-27 -161 -117.5 -284t-215.5 -185.5t-263 -62.5q-61 0 -129 18 l-61 -418l143 -10l-2 -21h-557zM434 41q56 -41 129 -41q99 0 188.5 144.5t122.5 367.5q14 94 14 169q0 85 -18 147q-33 118 -112 118q-90 0 -158 -110t-94 -297z" />
<glyph unicode="q" horiz-adv-x="1138" d="M135 512q27 161 118 284t216.5 185.5t263.5 62.5q103 0 180 -32l205 32h21l-205 -1464l141 -10l-2 -21h-559l2 21l146 10l118 694h-20q-53 -134 -135 -214t-191 -80q-165 0 -251 152q-60 105 -60 247q0 63 12 133zM416 512q-14 -94 -14 -169q0 -85 18 -147 q33 -118 112 -118q90 0 158 110t94 297l72 498q-56 41 -129 41q-99 0 -188.5 -144.5t-122.5 -367.5z" />
<glyph unicode="r" horiz-adv-x="960" d="M82 936v20q102 44 192 66t142 22q133 0 133 -113q0 -31 -10 -71l-58 -276h21q144 460 383 460q67 0 105 -43q31 -35 32 -82q0 -11 -2 -22q-10 -65 -58 -99q-44 -31 -91 -32h-10q-53 4 -93 46q-35 37 -36 96q0 9 1 18h-20q-58 -44 -132.5 -204t-103.5 -376l-47 -346h-272 l133 969l-19 20z" />
<glyph unicode="s" horiz-adv-x="905" d="M68 242q7 54 50 90.5t97 36.5q39 0 71 -18.5t50.5 -47.5t22.5 -65q1 -9 1 -18q0 -26 -8 -50q-12 -32 -46 -59t-85 -39l-2 -21q66 -49 172 -49q88 0 142 45.5t65 114.5q3 18 3 35q0 137 -195 225q-134 58 -192 133q-44 57 -44 143q0 27 4 56q18 126 130.5 208t285.5 82 q176 0 270 -78q82 -68 81 -157q0 -13 -1 -27q-6 -52 -44 -83t-89 -31q-43 0 -76 18t-50 46q-17 26 -20 60q-1 6 -1 13q0 27 11 51q13 30 45.5 55t80.5 33l2 21q-77 57 -191 57q-78 0 -130 -49.5t-58 -116.5q-1 -10 -1 -19q0 -114 159 -180q85 -39 137 -70.5t92.5 -73 t53.5 -93.5q7 -29 7 -63q0 -26 -4 -56q-20 -143 -153 -232t-308 -89q-173 0 -261 77q-75 66 -76 156q0 14 2 29z" />
<glyph unicode="t" horiz-adv-x="757" d="M154 993l2 21l139 10l287 246h20l-35 -246h267l-5 -31h-266l-104 -741q-8 -55 -9 -94q0 -50 14 -76q24 -46 93 -45q56 0 141 35l-2 -21q-151 -71 -317 -71q-202 0 -202 185q0 28 5 60l109 768h-137z" />
<glyph unicode="u" horiz-adv-x="1179" d="M82 936v20q102 44 192 66t142 22q90 0 119 -46q20 -31 20 -85q0 -24 -4 -53l-92 -649q-4 -31 -3 -55q0 -34 7 -54q13 -34 57 -34q36 0 78.5 35.5t85.5 103.5t81 185.5t58 264.5l51 367h273l-135 -969l18 -20l191 53v-20q-101 -44 -190.5 -66t-141.5 -22q-91 0 -119 48 q-16 26 -16 65q0 31 10 71l51 215h-20q-75 -210 -182 -304.5t-230 -94.5q-191 0 -191 214q0 42 7 93l94 682l-19 20z" />
<glyph unicode="v" horiz-adv-x="1087" d="M41 936v20q205 88 324 88q91 0 128.5 -40.5t57.5 -139.5l121 -700h20q74 111 121.5 185.5t115.5 201.5t97 217v20q-30 -4 -57 -4q-98 0 -141 58q-23 32 -23 68q0 23 9 48q23 61 84 80q21 6 44 6q66 0 105.5 -43t39.5 -110q0 -60 -32.5 -148t-98 -202t-113.5 -192 t-133 -205t-102 -154h-166l-223 968l-18 21z" />
<glyph unicode="w" horiz-adv-x="1701" d="M41 936v20q205 88 324 88q91 0 128.5 -40.5t57.5 -139.5l121 -700h20q143 208 236 383l-94 411l-19 21l-160 -43v20q205 88 324 88q91 0 128.5 -40.5t57.5 -139.5l121 -700h21q269 403 333 604v20q-30 -4 -57 -4q-98 0 -141 58q-23 32 -23 68q0 23 9 48q23 61 84 80 q21 6 44 6q66 0 106 -43t40 -110q0 -60 -32.5 -148t-98 -202t-113.5 -192t-133 -205t-102 -154h-166l-119 516q-38 -66 -88 -146t-85.5 -134t-87.5 -132t-69 -104h-166l-223 968l-18 21z" />
<glyph unicode="x" horiz-adv-x="1257" d="M43 127q10 59 53 94t92 37h5q47 0 89 -34q44 -36 56 -105h20q53 42 105.5 128.5t85.5 221.5l-168 487l-19 21l-165 -41v20q105 44 198.5 66t145.5 22q47 0 77.5 -9.5t51.5 -34t32.5 -52t26.5 -78.5l62 -206h20q172 380 373 380q66 0 104 -43q31 -34 31 -80q0 -12 -2 -24 q-10 -59 -54 -93t-93 -36q-2 0 -4 -1q-47 1 -89 35q-44 36 -55 103h-21q-101 -80 -184 -301l187 -532l18 -21l160 37v-20q-106 -44 -196.5 -66t-141.5 -22q-46 0 -76 9.5t-51 35t-32.5 52.5t-27.5 79l-75 245h-21q-81 -218 -182.5 -319.5t-202.5 -101.5q-66 0 -104 43 q-31 34 -31 80q0 11 2 24z" />
<glyph unicode="y" horiz-adv-x="1087" d="M-106 -322q10 64 72 94q31 15 60 15q27 0 53 -13q55 -28 55 -100q0 -14 -2 -30q-3 -29 -15 -62h20q63 0 162 79t190 204l-270 1093l-18 21l-160 -43v20q205 88 324 88q91 0 128.5 -40.5t57.5 -139.5l123 -700h20q62 94 89 137t86 140.5t97 177.5t60 149v20q-30 -4 -57 -4 q-98 0 -141 58q-23 32 -23 68q0 23 9 48q23 61 84 80q21 6 44 6q66 0 105.5 -43t39.5 -110q0 -217 -501 -946q-63 -93 -121 -162t-126.5 -129.5t-143 -92.5t-152.5 -32q-80 0 -119 45q-32 35 -32 80q0 12 2 24z" />
<glyph unicode="z" horiz-adv-x="1036" d="M41 8l784 791v20l-606 -12l-51 -80l-18 8q14 54 30 97.5t39.5 89t54 74t68.5 46.5q31 14 70 13q10 -1 20 -1q52 -4 113 -32l334 -156l182 166l16 -16l-780 -787v-20l668 12l49 82l18 -8q-14 -55 -29.5 -98t-38.5 -89.5t-53.5 -75.5t-68.5 -48q-32 -16 -73 -16q-9 0 -17 1 q-52 4 -113 31l-389 170l-193 -180z" />
<glyph unicode="{" horiz-adv-x="880" d="M168 573l2 19q67 8 112.5 28.5t74.5 57t46 76t33 102.5q23 82 26.5 308t10.5 276q8 59 28 105t47 78.5t67.5 56t83 37t101 21.5t112.5 10.5t126 2.5l-4 -20q-12 -1 -37 -2q-36 -2 -55 -3t-53.5 -5.5t-54 -10.5t-49 -18.5t-47 -28.5t-38.5 -41t-32.5 -56.5t-21 -74.5 t-11.5 -94q-1 -16 8 -222.5t-4 -242.5q-14 -76 -55.5 -136t-93 -95t-100.5 -58t-90.5 -38.5t-49.5 -22.5q99 -22 124 -31q184 -64 174 -261q0 -10 -1 -20q-5 -55 -67.5 -245.5t-67.5 -210.5q-11 -50 -14 -91.5t0 -72t15.5 -55t26 -40t36.5 -27.5t42 -18t49 -10t50 -5.5 t52.5 -3t49.5 -3.5l-2 -20q-105 0 -173 5t-138 22.5t-106.5 49.5t-54.5 88.5t-7 137.5q7 54 67 275t60 302q2 62 -4 98.5t-27.5 64.5t-60.5 41t-105 21z" />
<glyph unicode="|" horiz-adv-x="440" d="M174 -205l266 1884h31l-266 -1884h-31z" />
<glyph unicode="}" horiz-adv-x="880" d="M12 -532l2 20q18 2 51 3.5t53.5 3t52 5.5t52 10t47.5 18t44.5 27.5t37 40t31 55t20.5 72t11 91.5q1 22 -7.5 222t1.5 234q14 70 46.5 124t65 83.5t86.5 52.5t81.5 30t79.5 17q16 3 24 5q-5 6 -31.5 17.5t-60 25.5t-71.5 41t-68.5 60.5t-47.5 87.5t-12 118q7 61 69.5 253 t67.5 212q22 94 12 166q-4 31 -15 55.5t-24 41t-37 29t-41.5 18.5t-49 11t-49.5 6.5t-53.5 3.5t-49.5 3l4 20q103 0 172.5 -5.5t138 -24t105.5 -51.5t54.5 -90.5t6.5 -139.5q-7 -50 -68 -276t-61 -308q-1 -49 2 -83.5t14.5 -67.5t32.5 -54t56.5 -36.5t86.5 -22.5l-2 -19 q-69 -8 -112 -21t-72 -41t-45 -64t-33 -99q-23 -83 -24.5 -306.5t-7.5 -270.5q-8 -58 -28 -103.5t-47 -77.5t-68 -54.5t-83 -35.5t-101 -20.5t-112.5 -9.5t-126.5 -2z" />
<glyph unicode="~" horiz-adv-x="1126" d="M272 676q25 40 53 78t65 80t76.5 68t72.5 26q40 0 195 -51.5t200 -51.5q40 0 63 12.5t60 51.5l14 -8q-148 -232 -254 -232q-48 0 -197.5 49.5t-197.5 49.5q-45 0 -68 -14.5t-69 -65.5z" />
<glyph unicode="&#xa1;" horiz-adv-x="655" d="M127 -451l279 1065h20l-29 -1065h-270zM313 903q7 58 54 99.5t106 41.5t94.5 -41.5t26.5 -99.5q-8 -57 -55 -98t-105 -41q-59 0 -94.5 41t-26.5 98z" />
<glyph unicode="&#xa2;" horiz-adv-x="1126" d="M164.5 347.5q-7.5 75.5 1.5 158.5q16 119 72.5 218.5t136.5 165.5t173.5 105t190.5 47l27 187h31l-27 -185h14q171 0 260.5 -77.5t73.5 -184.5q-6 -54 -47 -90.5t-92 -36.5q-79 0 -106 60q-24 54 9 109q40 67 131 69q19 1 40 -2l2 20q-76 105 -238 105q-27 0 -51 -6 l-121 -840q34 -10 86 -10q103 0 189.5 49.5t134.5 118.5h20q-54 -141 -175.5 -241.5t-281.5 -106.5l-24 -185h-31l25 185q-93 2 -170 31.5t-127.5 79t-84.5 115.5t-41.5 141.5zM444 575q-22 -157 26 -258.5t146 -138.5l117 826q-111 -31 -188 -143t-101 -286z" />
<glyph unicode="&#xa3;" horiz-adv-x="1273" d="M109.5 63q-1.5 34 12.5 69.5t40 57.5q83 72 203 80q26 45 41.5 94t22.5 82.5t7 94t-1.5 86t-6.5 100.5h-168l4 21h164q-15 146 -14 188q1 106 36 194.5t90.5 147t127.5 99.5t146 59t147 18q105 0 180.5 -26t111 -67.5t49 -84t7.5 -84.5q-6 -55 -47 -91t-97 -36 q-78 0 -104 61q-24 55 8 111q38 67 120 69q26 1 54 -6l2 21q-95 113 -282 113q-139 0 -222 -111.5t-73 -298.5q2 -39 11 -134t11 -142h258l-4 -21h-254q-14 -240 -295 -446l4 -15q62 6 138.5 -3t143 -25t137 -33t129.5 -24t111.5 -0.5t92.5 39t63 93.5h21q-15 -40 -30.5 -71 t-41 -73t-58.5 -72.5t-76 -58.5t-102 -43t-128 -15q-68 0 -125 25.5t-95 63t-70 75.5t-66.5 68.5t-67.5 37.5q12 -136 -32 -203t-130 -67q-49 0 -75.5 24.5t-28 58.5z" />
<glyph unicode="&#xa4;" horiz-adv-x="1050" d="M160 100l180 176q-84 97 -66 234q21 141 134 233l-136 185l19 16l137 -184q100 74 215 74q112 0 193 -74l184 184l16 -16l-184 -183q89 -96 68 -235q-9 -68 -44.5 -129t-89.5 -105l132 -176l-21 -18l-133 178q-98 -72 -213 -72q-117 0 -195 72l-180 -178zM299 510 q-17 -121 58.5 -209t197.5 -88t222.5 88t117.5 209q19 121 -57.5 210t-198.5 89q-121 0 -221 -88.5t-119 -210.5z" />
<glyph unicode="&#xa5;" horiz-adv-x="1619" d="M279 1311q10 69 71.5 106t138.5 37q44 0 90 -10.5t101 -39t103 -71.5t92 -115t73.5 -163.5t41.5 -222t1 -285.5h21q142 464 283 685.5t298 221.5q62 0 93.5 -36.5t23.5 -88.5q-6 -53 -45.5 -91t-99.5 -38q-58 0 -88 46.5t-7 125.5h-20q-104 -75 -225.5 -330t-196.5 -520 h256l-2 -20h-258q-22 -79 -35 -174l-41 -297l144 -11l-2 -20h-562l2 20l148 11l33 239q17 148 20 232h-246l2 20h244q6 317 -69.5 572.5t-169.5 337.5l-23 -11q34 -32 41.5 -73t-7 -75t-47.5 -57.5t-73 -23.5q-53 0 -82 32t-22 87z" />
<glyph unicode="&#xa6;" horiz-adv-x="440" d="M174 -205l105 737h30l-104 -737h-31zM336 942l104 737h31l-104 -737h-31z" />
<glyph unicode="&#xa7;" horiz-adv-x="1236" d="M199 -205q7 49 41 81t77 32q67 0 89 -53q19 -49 -13 -95q-42 -61 -134 -48q-5 0 -9 1l-4 -20q15 -20 24 -31t37 -35.5t57.5 -39t79 -26.5t107.5 -12q105 0 185 74.5t95 181.5q5 33 -1.5 64.5t-17.5 55t-35.5 48.5t-42.5 40.5t-51.5 35.5t-50 28.5t-51.5 25t-42 20.5 q-163 80 -240.5 172t-67.5 185t86.5 185t217.5 181q-82 59 -113 133t-19 168q6 45 26 88t55.5 83t83 70t114 48t143.5 18q95 0 168 -26t112 -66.5t57 -85.5t12 -88q-6 -49 -40.5 -81t-78.5 -32q-66 0 -87 52q-21 48 11 95q42 60 132 50q6 -1 13 -2l2 20q-13 18 -23 30.5 t-37 36t-56.5 38.5t-79 27t-107.5 12q-105 0 -186 -74.5t-96 -181.5q-4 -30 -0.5 -57.5t16 -51.5t26 -43.5t37.5 -39t41 -33t47 -29.5l45 -24t45 -22t38 -18q131 -64 206 -136.5t93.5 -145.5t-10 -149t-101 -148.5t-184.5 -143.5q156 -115 129 -301q-6 -45 -26 -88 t-55.5 -83t-83 -70t-114 -48t-143.5 -18q-95 0 -168 26t-112 66.5t-56.5 85.5t-11.5 88zM371.5 518q5.5 -43 24 -76.5t55.5 -66t77 -57.5t95 -52q106 -53 206 -119q65 65 105.5 123.5t56.5 105t11 89.5t-23.5 76.5t-55.5 66t-77 57.5t-94 52q-124 62 -207 119 q-66 -65 -106 -123.5t-56.5 -105t-11 -89.5z" />
<glyph unicode="&#xa8;" horiz-adv-x="1024" d="M365 1260q7 55 47.5 89.5t93.5 34.5q54 0 83.5 -34.5t22.5 -89.5q-6 -54 -46 -87.5t-95 -33.5q-53 0 -83 33t-23 88zM764 1260q6 54 46.5 89t94.5 35q53 0 83.5 -34.5t23.5 -89.5q-7 -54 -47.5 -87.5t-94.5 -33.5q-53 0 -83 33t-23 88z" />
<glyph unicode="&#xa9;" horiz-adv-x="1720" d="M223 717q21 150 98.5 286.5t189.5 235.5t257 157t295 58t278.5 -58t213.5 -157t124.5 -235.5t18.5 -286.5t-98.5 -286.5t-190.5 -235.5t-258 -157t-295 -58t-278.5 58t-213 157t-123.5 235.5t-18 286.5zM244 717q-21 -146 17 -279t120.5 -229t207.5 -152.5t271 -56.5 q195 0 373.5 96t297 261t146.5 360q27 195 -45.5 360t-224 261t-346.5 96t-373.5 -95.5t-297.5 -261t-146 -360.5zM643 717q21 159 136.5 263.5t262.5 104.5q71 0 134.5 -19t95.5 -42l-19 -170h-10l-43 121q-15 21 -24.5 32t-30 29t-47 26.5t-58.5 8.5q-90 0 -159 -102 t-90 -252q-22 -150 18.5 -252.5t130.5 -102.5q32 0 62 8.5t57.5 27t40 28.5t35.5 31l77 123h9l-35 -170q-39 -23 -108.5 -42.5t-139.5 -19.5q-146 0 -232 105t-63 264z" />
<glyph unicode="&#xaa;" horiz-adv-x="716" d="M143 635l2 20h607l-2 -20h-607zM193 932q7 56 56.5 91.5t131.5 63.5l176 56l23 155q8 62 -16 89.5t-85 27.5q-31 0 -72 -15.5t-67 -37.5l-2 -12q62 4 77 -40q12 -37 -18 -71q-27 -30 -69 -31q-31 0 -49 21.5t-13 52.5q7 61 93 108.5t186 47.5q93 0 148.5 -40t43.5 -132 l-61 -443h86l-2 -12l-240 -12h-12l10 67h-12q-54 -35 -95.5 -51t-93.5 -16q-67 0 -99.5 37.5t-24.5 95.5zM360 977q-7 -52 15.5 -81.5t66.5 -29.5q38 0 78 19l35 245l-82 -28q-52 -18 -79 -46t-34 -79z" />
<glyph unicode="&#xab;" horiz-adv-x="1392" d="M264 528l6 41l553 379l-4 -20l-254 -377l148 -381l-2 -20zM776 528l6 41l553 379l-4 -20l-254 -377l148 -381l-2 -20z" />
<glyph unicode="&#xac;" horiz-adv-x="1222" d="M268 563l4 21h854l-57 -404h-20l53 383h-834z" />
<glyph unicode="&#xad;" d="M264 532l4 31h766l-4 -31h-766z" />
<glyph unicode="&#xae;" horiz-adv-x="1720" d="M223 717q21 150 98.5 286.5t189.5 235.5t257 157t295 58t278.5 -58t213.5 -157t124.5 -235.5t18.5 -286.5t-98.5 -286.5t-190.5 -235.5t-258 -157t-295 -58t-278.5 58t-213 157t-123.5 235.5t-18 286.5zM244 717q-21 -146 17 -279t120.5 -229t207.5 -152.5t271 -56.5 q195 0 373.5 96t297 261t146.5 360q27 195 -45.5 360t-224 261t-346.5 96t-373.5 -95.5t-297.5 -261t-146 -360.5zM600 358l2 11l72 4l96 688l-70 4v10h314q115 0 171 -52.5t44 -139.5q-10 -69 -55 -121.5t-130 -77.5l164 -311l33 -4l-2 -11h-195l-137 318h-55l-43 -303 l65 -4l-2 -11h-272zM854 690h29q55 0 94 15.5t60 45t31.5 58.5t16.5 68q22 184 -118 184h-62z" />
<glyph unicode="&#xaf;" horiz-adv-x="1044" d="M377 1229l4 31h635l-4 -31h-635z" />
<glyph unicode="&#xb0;" horiz-adv-x="768" d="M385 1378q11 78 73 135.5t144 57.5q84 0 130.5 -57.5t35.5 -135.5q-11 -77 -73 -133.5t-146 -56.5q-83 0 -129 56.5t-35 133.5zM403 1378q-9 -71 31 -121.5t117 -50.5q79 0 133.5 50.5t65.5 121.5q9 72 -31 123t-119 51q-77 0 -131.5 -51t-65.5 -123z" />
<glyph unicode="&#xb1;" d="M213 164l2 20h373l49 355h-373l4 20h373l51 373h21l-51 -373h372l-4 -20h-373l-49 -355h373l-2 -20h-766z" />
<glyph unicode="&#xb2;" horiz-adv-x="661" d="M262 1147l2 10q70 47 127.5 94t96 86.5t68 81.5t45.5 73t27.5 66t15.5 56.5t7 48.5q11 82 -16 134t-94 52q-76 0 -135 -53l-3 -10q59 14 75 -25q14 -33 -13 -65q-22 -27 -59 -27q-24 0 -39.5 17t-12.5 49q8 51 73.5 95t162.5 44q61 0 103.5 -18.5t63 -50t27.5 -65.5 t2 -71q-4 -29 -14 -58.5t-36 -73t-65 -86t-105 -95t-152 -101.5l-2 -10l323 6l-16 -104h-457z" />
<glyph unicode="&#xb3;" horiz-adv-x="669" d="M281 1270q3 27 23.5 44t47.5 17q43 0 53.5 -37.5t-20.5 -65.5q-27 -25 -72 -22l-2 -10q52 -59 146 -59q63 0 105.5 50t55.5 142q10 74 -20 129t-94 55h-27l2 13h23q64 0 100 45.5t43 107.5q8 56 -17.5 94.5t-80.5 38.5q-36 0 -65.5 -12t-51 -36t-33 -41.5t-26.5 -45.5 h-11q28 73 92.5 130t145.5 57q92 0 141.5 -45t38.5 -117q-9 -67 -67.5 -115t-163.5 -65v-4q108 -6 163.5 -52.5t43.5 -130.5q-13 -100 -97 -154.5t-198 -54.5q-92 0 -139 43t-39 101z" />
<glyph unicode="&#xb4;" horiz-adv-x="755" d="M352 1126l189 369h235l-403 -369h-21z" />
<glyph unicode="&#xb5;" horiz-adv-x="1179" d="M-223 -340q8 48 45 81.5t92 33.5q18 0 36.5 -6.5t34 -22.5t23.5 -39t2.5 -60.5t-26.5 -82.5h18q58 0 88 90.5t60 300.5l143 1014l-19 20l-192 -53v20q102 44 192 66t142 22q90 0 119 -45.5t16 -138.5l-92 -649q-9 -76 4 -109.5t57 -33.5q36 0 78.5 35.5t85.5 103.5 t81 185.5t58 264.5l51 367h273l-135 -969l18 -20l191 53v-20q-101 -44 -190.5 -66t-141.5 -22q-91 0 -119.5 47.5t-5.5 136.5l51 215h-20q-70 -193 -166 -288.5t-207 -108.5q-51 -205 -189 -329t-294 -124q-80 0 -125.5 34.5t-36.5 96.5z" />
<glyph unicode="&#xb6;" horiz-adv-x="1413" d="M244 717q47 336 266 526.5t551 190.5h41l-201 -1434h-41q-217 0 -367.5 91t-214 253.5t-34.5 372.5zM1004 0l200 1434h266l-4 -21l-235 -10l-193 -1372l234 -11l-2 -20h-266z" />
<glyph unicode="&#xb7;" horiz-adv-x="626" d="M264 539q7 55 48 90t94 35t83 -35t21 -90q-6 -54 -45.5 -87.5t-93.5 -33.5q-53 0 -83.5 33t-23.5 88z" />
<glyph unicode="&#xb8;" horiz-adv-x="763" d="M127 -446l6 18q62 -16 98 -16q63 0 104 36.5t48 100.5q8 55 -12 94.5t-68 48.5l31 164h20l-22 -154q88 0 147 -43.5t49 -113.5q-9 -72 -77 -116t-175 -44q-69 0 -149 25z" />
<glyph unicode="&#xb9;" horiz-adv-x="669" d="M262 1147l2 10l164 4l94 674l-145 -18l2 10l274 47h11l-101 -713l166 -4l-2 -10h-465z" />
<glyph unicode="&#xba;" horiz-adv-x="716" d="M143 635l2 20h607l-2 -20h-607zM203 1118q21 145 123.5 232.5t232.5 87.5q131 0 209 -87.5t57 -232.5q-20 -145 -122.5 -232t-233.5 -87t-208.5 87t-57.5 232zM379 1118q-45 -307 92 -307t178 307q45 307 -92 307q-133 0 -178 -307z" />
<glyph unicode="&#xbb;" horiz-adv-x="1392" d="M211 150l2 20l254 381l-148 377l5 20l446 -379l-6 -41zM723 150l2 20l254 381l-148 377l5 20l446 -379l-6 -41z" />
<glyph unicode="&#xbc;" horiz-adv-x="1638" d="M205 737l2 11l164 4l94 673l-146 -18l3 10l274 47h10l-100 -712l166 -4l-2 -11h-465zM573 0l408 717l430 737h21l-431 -737l-407 -717h-21zM1042 164l2 16l410 512l100 35l-75 -551h82l-2 -12h-82l-23 -164h-137l22 164h-297zM1065 176h276l60 422h-10l-326 -412v-10z " />
<glyph unicode="&#xbd;" horiz-adv-x="1638" d="M205 737l2 11l164 4l94 673l-146 -18l3 10l274 47h10l-100 -712l166 -4l-2 -11h-465zM532 0l408 717l430 737h21l-430 -737l-408 -717h-21zM1079 0v10q98 64 170.5 130t110.5 115t63 104.5t32 85.5t13 71q11 82 -16 134t-94 52q-75 0 -137 -53l-2 -10q59 14 76 -25 q13 -33 -13 -65q-22 -27 -59 -27q-24 0 -41 17.5t-11 48.5q7 51 71.5 95t160.5 44q50 0 88.5 -12.5t60 -33t36 -47.5t16 -55.5t-1.5 -56.5t-13.5 -58t-36.5 -73t-65 -86t-105.5 -95t-152.5 -101v-11l321 6l-14 -104h-457z" />
<glyph unicode="&#xbe;" horiz-adv-x="1638" d="M223 860q3 27 23 44.5t47 17.5q44 0 55 -37q11 -38 -20 -66q-27 -25 -72 -22l-2 -11q46 -59 143 -59q63 0 107 50.5t57 142.5q10 74 -20.5 129t-94.5 55h-26l2 12h22q63 0 99 45.5t45 108.5q8 55 -19 94t-80 39q-36 0 -65.5 -12t-51 -36t-33 -41.5t-26.5 -45.5h-10 q28 73 92.5 129.5t145.5 56.5q92 0 141.5 -45t38.5 -117q-9 -67 -68 -115t-164 -65l-2 -4q109 -6 165 -52t44 -130q-14 -100 -98 -154.5t-197 -54.5q-92 0 -139 42.5t-39 100.5zM573 0l408 717l430 737h21l-431 -737l-407 -717h-21zM1042 164l2 16l410 512l100 35l-75 -551 h82l-2 -12h-82l-23 -164h-137l22 164h-297zM1065 176h276l60 422h-10l-326 -412v-10z" />
<glyph unicode="&#xbf;" horiz-adv-x="1056" d="M92 -102q8 57 38.5 112t88.5 109.5t159.5 96t235.5 60.5l60 338h20l-41 -352q-268 -77 -305 -350q-21 -150 47 -244t211 -94q73 0 146 30t116 74l2 21q-105 -14 -139 51q-27 51 6 111q34 64 107 76q13 2 26 2q51 0 81.5 -36t23.5 -87q-18 -120 -155 -203.5t-328 -83.5 q-110 0 -194 32t-130.5 85t-66 117.5t-9.5 134.5zM586 903q8 59 54.5 100t104.5 41q57 0 92.5 -41.5t28.5 -99.5q-9 -57 -55.5 -98t-103.5 -41q-59 0 -94.5 41t-26.5 98z" />
<glyph unicode="&#xc0;" horiz-adv-x="1433" d="M6 0l2 20l234 86l561 1215l192 133l336 -1423l99 -11l-3 -20h-579l2 20l168 11l-96 481h-463l-185 -406l213 -86l-2 -20h-479zM467 537h451l-127 651h-21zM637 1905h235l66 -369h-20z" />
<glyph unicode="&#xc1;" horiz-adv-x="1433" d="M6 0l2 20l234 86l561 1215l192 133l336 -1423l99 -11l-3 -20h-579l2 20l168 11l-96 481h-463l-185 -406l213 -86l-2 -20h-479zM467 537h451l-127 651h-21zM895 1536l188 369h236l-404 -369h-20z" />
<glyph unicode="&#xc2;" horiz-adv-x="1433" d="M6 0l2 20l234 86l561 1215l192 133l336 -1423l99 -11l-3 -20h-579l2 20l168 11l-96 481h-463l-185 -406l213 -86l-2 -20h-479zM467 537h451l-127 651h-21zM655 1536l318 369h20l215 -369h-20l-232 182l-280 -182h-21z" />
<glyph unicode="&#xc3;" horiz-adv-x="1433" d="M6 0l2 20l234 86l561 1215l192 133l336 -1423l99 -11l-3 -20h-579l2 20l168 11l-96 481h-463l-185 -406l213 -86l-2 -20h-479zM467 537h451l-127 651h-21zM555 1597q25 40 52.5 77.5t64.5 80t76.5 68.5t72.5 26q48 0 115 -29.5t136 -59t122 -29.5q34 0 62 11.5t43.5 25 t46.5 44.5l8 -10q-148 -231 -254 -231q-51 0 -121 30t-139.5 59.5t-120.5 29.5q-21 0 -38.5 -4.5t-35 -18t-26.5 -21t-29 -30t-27 -29.5z" />
<glyph unicode="&#xc4;" horiz-adv-x="1433" d="M6 0l2 20l234 86l561 1215l192 133l336 -1423l99 -11l-3 -20h-579l2 20l168 11l-96 481h-463l-185 -406l213 -86l-2 -20h-479zM467 537h451l-127 651h-21zM627 1669q7 55 47.5 90t93.5 35q54 0 83.5 -35t22.5 -90q-6 -54 -46 -87.5t-95 -33.5q-53 0 -83 33t-23 88z M1026 1669q7 55 47.5 90t93.5 35t83.5 -35t23.5 -90q-7 -54 -47 -87.5t-94 -33.5q-53 0 -83.5 33t-23.5 88z" />
<glyph unicode="&#xc5;" horiz-adv-x="1433" d="M6 0l2 20l234 86l561 1215l192 133l336 -1423l99 -11l-3 -20h-579l2 20l168 11l-96 481h-463l-185 -406l213 -86l-2 -20h-479zM467 537h451l-127 651h-21zM778 1714q11 77 67.5 128.5t137.5 51.5t123 -51.5t31 -128.5t-67 -127.5t-138 -50.5q-79 0 -122 51t-32 127z M827 1714q-10 -69 16.5 -113.5t90.5 -44.5q65 0 103 44t48 114q10 71 -15.5 115.5t-90.5 44.5q-64 0 -103 -45t-49 -115z" />
<glyph unicode="&#xc6;" horiz-adv-x="1884" d="M6 0l2 20l268 86l832 1297l-190 10l4 21h1054l-39 -342h-20l-145 311l-437 10l-96 -686l324 8l133 228h20l-71 -508h-21l-65 243l-322 9l-96 -687l458 11l242 311h21l-66 -342h-1073l2 20l147 11l95 676h-285l-375 -601l180 -86l-2 -20h-479zM692 727h277l71 506h-20z " />
<glyph unicode="&#xc7;" horiz-adv-x="1331" d="M176 717q22 159 92.5 296t175.5 234t244 152t293 55q139 0 259 -38t190 -85l-39 -342h-21l-90 234q-27 79 -101.5 145t-172.5 66q-211 0 -349.5 -183t-187.5 -534q-51 -355 33 -536t303 -181q100 0 195 65t145 146l158 233h20l-66 -342q-82 -45 -205 -81.5t-266 -40.5 l-18 -134q88 0 147.5 -43.5t49.5 -113.5q-9 -72 -77 -116t-175 -44q-70 0 -150 25l6 18q62 -16 99 -16q63 0 103.5 36.5t47.5 100.5q8 55 -12 94.5t-68 48.5l27 144q-161 4 -285 63t-197 158.5t-101 231.5t-7 284z" />
<glyph unicode="&#xc8;" horiz-adv-x="1228" d="M68 0l2 20l147 11l193 1372l-146 10l4 21h1053l-39 -342h-20l-146 311l-436 10l-96 -686l323 8l133 242h21l-72 -510h-20l-66 231l-321 9l-97 -687l459 11l242 311h20l-65 -342h-1073zM674 1905h235l66 -369h-21z" />
<glyph unicode="&#xc9;" horiz-adv-x="1228" d="M68 0l2 20l147 11l193 1372l-146 10l4 21h1053l-39 -342h-20l-146 311l-436 10l-96 -686l323 8l133 242h21l-72 -510h-20l-66 231l-321 9l-97 -687l459 11l242 311h20l-65 -342h-1073zM807 1536l188 369h236l-404 -369h-20z" />
<glyph unicode="&#xca;" horiz-adv-x="1228" d="M68 0l2 20l147 11l193 1372l-146 10l4 21h1053l-39 -342h-20l-146 311l-436 10l-96 -686l323 8l133 242h21l-72 -510h-20l-66 231l-321 9l-97 -687l459 11l242 311h20l-65 -342h-1073zM553 1536l317 369h21l215 -369h-21l-231 182l-281 -182h-20z" />
<glyph unicode="&#xcb;" horiz-adv-x="1228" d="M68 0l2 20l147 11l193 1372l-146 10l4 21h1053l-39 -342h-20l-146 311l-436 10l-96 -686l323 8l133 242h21l-72 -510h-20l-66 231l-321 9l-97 -687l459 11l242 311h20l-65 -342h-1073zM547 1669q7 55 47.5 90t93.5 35q54 0 84 -35t23 -90q-6 -54 -46.5 -87.5t-95.5 -33.5 q-53 0 -83 33t-23 88zM946 1669q7 55 47.5 90t93.5 35t83.5 -35t23.5 -90q-7 -54 -47 -87.5t-94 -33.5q-53 0 -83.5 33t-23.5 88z" />
<glyph unicode="&#xcc;" horiz-adv-x="696" d="M68 0l2 20l147 11l193 1372l-146 10l4 21h561l-4 -21l-145 -10l-193 -1372l144 -11l-2 -20h-561zM252 1905h235l66 -369h-21z" />
<glyph unicode="&#xcd;" horiz-adv-x="696" d="M68 0l2 20l147 11l193 1372l-146 10l4 21h561l-4 -21l-145 -10l-193 -1372l144 -11l-2 -20h-561zM530 1536l189 369h235l-403 -369h-21z" />
<glyph unicode="&#xce;" horiz-adv-x="696" d="M68 0l2 20l147 11l193 1372l-146 10l4 21h561l-4 -21l-145 -10l-193 -1372l144 -11l-2 -20h-561zM287 1536l317 369h21l215 -369h-21l-231 182l-281 -182h-20z" />
<glyph unicode="&#xcf;" horiz-adv-x="696" d="M68 0l2 20l147 11l193 1372l-146 10l4 21h561l-4 -21l-145 -10l-193 -1372l144 -11l-2 -20h-561zM258 1669q7 55 47.5 90t93.5 35q54 0 84 -35t23 -90q-6 -54 -46 -87.5t-95 -33.5q-53 0 -83.5 33t-23.5 88zM657 1669q7 55 48 90t94 35t83 -35t23 -90q-7 -54 -47 -87.5 t-94 -33.5q-53 0 -83.5 33t-23.5 88z" />
<glyph unicode="&#xd0;" horiz-adv-x="1515" d="M68 0l2 20l147 11l96 686h-137l2 20h137l95 666l-146 10l4 21h629q220 0 375.5 -84.5t227 -247.5t40.5 -385q-29 -209 -145.5 -372t-299 -254t-399.5 -91h-628zM485 20h213q92 0 174.5 41.5t143.5 110.5t109 160t77.5 188t44.5 197q14 115 13.5 218t-27 190.5t-71 151.5 t-119 100t-171.5 36h-192l-94 -676h239l-2 -20h-239z" />
<glyph unicode="&#xd1;" horiz-adv-x="1495" d="M68 0l2 20l231 86l182 1297l-219 10l4 21h467l514 -971h21l114 864l-219 86l4 21h480l-4 -21l-230 -86l-188 -1337h-41l-684 1253h-21l-149 -1137l217 -86l-2 -20h-479zM625 1597q25 40 52.5 77.5t64.5 80t76.5 68.5t72.5 26q48 0 115 -29.5t136 -59t122 -29.5 q34 0 62 12t42.5 24.5t46.5 44.5l8 -10q-148 -231 -254 -231q-51 0 -121 30t-139.5 59.5t-120.5 29.5q-21 0 -38.5 -5t-34.5 -17.5t-26.5 -21t-29 -30t-26.5 -29.5z" />
<glyph unicode="&#xd2;" horiz-adv-x="1597" d="M176 717q22 157 100 296t190 234.5t252 151t283 55.5t267.5 -55.5t210 -151.5t125.5 -234.5t18 -295.5t-101 -295.5t-191 -234.5t-252 -151.5t-283 -55.5t-267.5 55.5t-209.5 151t-124.5 234.5t-17.5 296zM469 717q-51 -346 36.5 -531.5t293.5 -185.5q205 0 343 185 t187 532q49 346 -38 531.5t-292 185.5q-206 0 -344.5 -185.5t-185.5 -531.5zM713 1905h235l66 -369h-21z" />
<glyph unicode="&#xd3;" horiz-adv-x="1597" d="M176 717q22 157 100 296t190 234.5t252 151t283 55.5t267.5 -55.5t210 -151.5t125.5 -234.5t18 -295.5t-101 -295.5t-191 -234.5t-252 -151.5t-283 -55.5t-267.5 55.5t-209.5 151t-124.5 234.5t-17.5 296zM469 717q-51 -346 36.5 -531.5t293.5 -185.5q205 0 343 185 t187 532q49 346 -38 531.5t-292 185.5q-206 0 -344.5 -185.5t-185.5 -531.5zM965 1536l188 369h236l-404 -369h-20z" />
<glyph unicode="&#xd4;" horiz-adv-x="1597" d="M176 717q22 157 100 296t190 234.5t252 151t283 55.5t267.5 -55.5t210 -151.5t125.5 -234.5t18 -295.5t-101 -295.5t-191 -234.5t-252 -151.5t-283 -55.5t-267.5 55.5t-209.5 151t-124.5 234.5t-17.5 296zM469 717q-51 -346 36.5 -531.5t293.5 -185.5q205 0 343 185 t187 532q49 346 -38 531.5t-292 185.5q-206 0 -344.5 -185.5t-185.5 -531.5zM737 1536l318 369h20l215 -369h-20l-232 182l-280 -182h-21z" />
<glyph unicode="&#xd5;" horiz-adv-x="1597" d="M176 717q22 157 100 296t190 234.5t252 151t283 55.5t267.5 -55.5t210 -151.5t125.5 -234.5t18 -295.5t-101 -295.5t-191 -234.5t-252 -151.5t-283 -55.5t-267.5 55.5t-209.5 151t-124.5 234.5t-17.5 296zM469 717q-51 -346 36.5 -531.5t293.5 -185.5q205 0 343 185 t187 532q49 346 -38 531.5t-292 185.5q-206 0 -344.5 -185.5t-185.5 -531.5zM637 1597q25 40 52.5 77.5t64.5 80t76.5 68.5t72.5 26q48 0 115 -29.5t136 -59t122 -29.5q34 0 62 12t42.5 24.5t46.5 44.5l9 -10q-148 -231 -254 -231q-51 0 -121 30t-139.5 59.5t-120.5 29.5 q-21 0 -38.5 -4.5t-35 -18t-26.5 -21t-29 -30t-27 -29.5z" />
<glyph unicode="&#xd6;" horiz-adv-x="1597" d="M176 717q22 157 100 296t190 234.5t252 151t283 55.5t267.5 -55.5t210 -151.5t125.5 -234.5t18 -295.5t-101 -295.5t-191 -234.5t-252 -151.5t-283 -55.5t-267.5 55.5t-209.5 151t-124.5 234.5t-17.5 296zM469 717q-51 -346 36.5 -531.5t293.5 -185.5q205 0 343 185 t187 532q49 346 -38 531.5t-292 185.5q-206 0 -344.5 -185.5t-185.5 -531.5zM709 1669q7 55 47.5 90t93.5 35q54 0 83.5 -35t22.5 -90q-6 -54 -46 -87.5t-95 -33.5q-53 0 -83 33t-23 88zM1108 1669q7 55 47.5 90t93.5 35t83.5 -35t23.5 -90q-7 -54 -47.5 -87.5t-94.5 -33.5 q-53 0 -83 33t-23 88z" />
<glyph unicode="&#xd7;" horiz-adv-x="1126" d="M250 227l366 322l-276 321l25 23l276 -322l369 322l18 -21l-369 -323l279 -324l-25 -20l-278 321l-367 -321z" />
<glyph unicode="&#xd8;" horiz-adv-x="1597" d="M176 717q22 157 100 296t190 234.5t252 151t283 55.5q141 0 264 -53.5t210 -151.5l133 121l12 -18l-131 -119q82 -102 118 -233.5t15 -282.5q-22 -157 -101 -295.5t-191 -234.5t-252 -151.5t-283 -55.5q-139 0 -259.5 50.5t-207.5 143.5l-135 -123l-15 19l135 123 q-86 100 -123 234t-14 290zM463 328l868 790q-29 155 -113.5 235.5t-218.5 80.5q-206 0 -344.5 -185.5t-185.5 -531.5q-32 -216 -6 -389zM467 301q31 -148 115.5 -224.5t216.5 -76.5q205 0 343 185t187 532q29 210 6 375z" />
<glyph unicode="&#xd9;" horiz-adv-x="1556" d="M244 1413l4 21h561l-4 -21l-146 -10l-127 -905q-64 -463 318 -463q196 0 319.5 139.5t155.5 372.5l111 780l-209 86l4 21h479l-4 -21l-240 -86l-110 -774q-38 -278 -190 -425.5t-402 -147.5q-285 0 -409.5 151t-86.5 422l121 850zM748 1905h235l66 -369h-21z" />
<glyph unicode="&#xda;" horiz-adv-x="1556" d="M244 1413l4 21h561l-4 -21l-146 -10l-127 -905q-64 -463 318 -463q196 0 319.5 139.5t155.5 372.5l111 780l-209 86l4 21h479l-4 -21l-240 -86l-110 -774q-38 -278 -190 -425.5t-402 -147.5q-285 0 -409.5 151t-86.5 422l121 850zM1010 1536l188 369h236l-404 -369h-20z " />
<glyph unicode="&#xdb;" horiz-adv-x="1556" d="M244 1413l4 21h561l-4 -21l-146 -10l-127 -905q-64 -463 318 -463q196 0 319.5 139.5t155.5 372.5l111 780l-209 86l4 21h479l-4 -21l-240 -86l-110 -774q-38 -278 -190 -425.5t-402 -147.5q-285 0 -409.5 151t-86.5 422l121 850zM770 1536l317 369h21l215 -369h-20 l-232 182l-280 -182h-21z" />
<glyph unicode="&#xdc;" horiz-adv-x="1556" d="M244 1413l4 21h561l-4 -21l-146 -10l-127 -905q-64 -463 318 -463q196 0 319.5 139.5t155.5 372.5l111 780l-209 86l4 21h479l-4 -21l-240 -86l-110 -774q-38 -278 -190 -425.5t-402 -147.5q-285 0 -409.5 151t-86.5 422l121 850zM743 1669q7 55 48 90t94 35 q54 0 83.5 -35t22.5 -90q-6 -54 -46 -87.5t-95 -33.5q-53 0 -83.5 33t-23.5 88zM1143 1669q7 55 47.5 90t93.5 35t83.5 -35t23.5 -90q-7 -54 -47.5 -87.5t-94.5 -33.5q-53 0 -83 33t-23 88z" />
<glyph unicode="&#xdd;" horiz-adv-x="1392" d="M203 1413l4 21h567l-4 -21l-133 -10l262 -766h21l403 690l-199 86l4 21h459l-4 -21l-219 -86l-440 -735l-78 -561l143 -11l-2 -20h-561l2 20l147 11l66 467l-322 905zM952 1536l189 369h235l-403 -369h-21z" />
<glyph unicode="&#xde;" horiz-adv-x="1249" d="M68 0l2 20l147 11l193 1372l-146 10l4 21h561l-4 -21l-145 -10l-39 -277h240q224 0 332.5 -107.5t82.5 -281.5q-9 -64 -35 -123.5t-76.5 -116t-120 -98t-173 -67t-227.5 -25.5h-138l-39 -276l144 -11l-2 -20h-561zM528 328h111q69 0 128 24.5t100 63.5t72 91t48 104 t25 106q5 50 7 103t-11 103.5t-35 91t-64.5 65.5t-99.5 26h-172z" />
<glyph unicode="&#xdf;" horiz-adv-x="1298" d="M-211 -340q6 48 43 81.5t92 33.5q19 0 37.5 -6.5t35 -22.5t24.5 -39t2.5 -60.5t-27.5 -82.5h20q57 0 87.5 89.5t60.5 289.5l147 1050h-125l2 21l127 10q11 84 40 154.5t67 118t86 84t93.5 57.5t93.5 34.5t83.5 18t65.5 4.5q175 0 272 -68.5t80 -189.5q-8 -57 -42 -104.5 t-77 -79.5t-86 -61t-74.5 -61t-35.5 -67q-4 -30 12.5 -55t58.5 -57l197 -156q66 -52 94.5 -120.5t21.5 -135.5t-42.5 -133t-91.5 -116t-132 -80.5t-157 -30.5q-162 0 -240.5 69.5t-64.5 177.5q7 61 54 101.5t103 40.5q47 0 83.5 -26t50 -65.5t8.5 -81.5t-44 -79.5 t-104 -53.5l-2 -20q24 -21 69 -32t85 -11q66 0 124.5 39t75.5 113q33 130 -110 249l-152 129q-33 27 -50 54.5t-17 55.5t6 51.5t27 55t38.5 53.5t48 58.5t48.5 59.5q36 48 61.5 120t33 146.5t-0.5 140.5t-43.5 108t-93.5 42q-46 0 -83 -22t-62.5 -59.5t-46 -96.5t-33.5 -123 t-25 -150l-144 -1024q-18 -128 -93.5 -237.5t-181.5 -171.5t-216 -62q-81 0 -126 34t-36 97z" />
<glyph unicode="&#xe0;" horiz-adv-x="1169" d="M135 512q27 161 118 284t216.5 185.5t263.5 62.5q98 0 180 -32l205 32h21l-140 -989l19 -20l192 53v-20q-101 -44 -190 -66t-141 -22q-91 0 -118.5 47t-6.5 137l26 110h-20q-53 -134 -135 -214t-191 -80q-165 0 -251 151.5t-48 380.5zM416 512q-30 -198 3.5 -316 t112.5 -118q90 0 158 110t94 297l72 498q-56 41 -129 41q-99 0 -188.5 -144.5t-122.5 -367.5zM494 1495h235l66 -369h-21z" />
<glyph unicode="&#xe1;" horiz-adv-x="1169" d="M135 512q27 161 118 284t216.5 185.5t263.5 62.5q98 0 180 -32l205 32h21l-140 -989l19 -20l192 53v-20q-101 -44 -190 -66t-141 -22q-91 0 -118.5 47t-6.5 137l26 110h-20q-53 -134 -135 -214t-191 -80q-165 0 -251 151.5t-48 380.5zM416 512q-30 -198 3.5 -316 t112.5 -118q90 0 158 110t94 297l72 498q-56 41 -129 41q-99 0 -188.5 -144.5t-122.5 -367.5zM713 1126l188 369h236l-404 -369h-20z" />
<glyph unicode="&#xe2;" horiz-adv-x="1169" d="M135 512q27 161 118 284t216.5 185.5t263.5 62.5q98 0 180 -32l205 32h21l-140 -989l19 -20l192 53v-20q-101 -44 -190 -66t-141 -22q-91 0 -118.5 47t-6.5 137l26 110h-20q-53 -134 -135 -214t-191 -80q-165 0 -251 151.5t-48 380.5zM416 512q-30 -198 3.5 -316 t112.5 -118q90 0 158 110t94 297l72 498q-56 41 -129 41q-99 0 -188.5 -144.5t-122.5 -367.5zM483 1126l318 369h20l215 -369h-20l-232 183l-280 -183h-21z" />
<glyph unicode="&#xe3;" horiz-adv-x="1169" d="M135 512q27 161 118 284t216.5 185.5t263.5 62.5q98 0 180 -32l205 32h21l-140 -989l19 -20l192 53v-20q-101 -44 -190 -66t-141 -22q-91 0 -118.5 47t-6.5 137l26 110h-20q-53 -134 -135 -214t-191 -80q-165 0 -251 151.5t-48 380.5zM403 1188q25 40 53 78t65 80 t76.5 68t72.5 26q48 0 114.5 -30t135.5 -59.5t122 -29.5q34 0 62 12t43 25t47 45l8 -10q-148 -232 -254 -232q-51 0 -121 30t-139.5 59.5t-120.5 29.5q-21 0 -38.5 -4.5t-35 -17.5t-26 -21t-28.5 -30t-27 -29zM416 512q-30 -198 3.5 -316t112.5 -118q90 0 158 110t94 297 l72 498q-56 41 -129 41q-99 0 -188.5 -144.5t-122.5 -367.5z" />
<glyph unicode="&#xe4;" horiz-adv-x="1169" d="M135 512q27 161 118 284t216.5 185.5t263.5 62.5q98 0 180 -32l205 32h21l-140 -989l19 -20l192 53v-20q-101 -44 -190 -66t-141 -22q-91 0 -118.5 47t-6.5 137l26 110h-20q-53 -134 -135 -214t-191 -80q-165 0 -251 151.5t-48 380.5zM416 512q-30 -198 3.5 -316 t112.5 -118q90 0 158 110t94 297l72 498q-56 41 -129 41q-99 0 -188.5 -144.5t-122.5 -367.5zM473 1260q7 55 47.5 89.5t93.5 34.5q54 0 84 -34.5t23 -89.5q-6 -54 -46 -87.5t-95 -33.5q-53 0 -83.5 33t-23.5 88zM872 1260q6 54 47 89t95 35q53 0 83 -34.5t23 -89.5 q-7 -54 -47 -87.5t-94 -33.5q-53 0 -83.5 33t-23.5 88z" />
<glyph unicode="&#xe5;" horiz-adv-x="1169" d="M135 512q27 161 118 284t216.5 185.5t263.5 62.5q98 0 180 -32l205 32h21l-140 -989l19 -20l192 53v-20q-101 -44 -190 -66t-141 -22q-91 0 -118.5 47t-6.5 137l26 110h-20q-53 -134 -135 -214t-191 -80q-165 0 -251 151.5t-48 380.5zM416 512q-30 -198 3.5 -316 t112.5 -118q90 0 158 110t94 297l72 498q-56 41 -129 41q-99 0 -188.5 -144.5t-122.5 -367.5zM631 1305q11 77 66.5 128.5t136.5 51.5t123.5 -51.5t31.5 -128.5t-67.5 -128t-137.5 -51q-78 0 -121 51.5t-32 127.5zM680 1305q-10 -69 16 -113.5t90 -44.5q65 0 103.5 44 t48.5 114q10 71 -16 115t-91 44q-64 0 -102.5 -44.5t-48.5 -114.5z" />
<glyph unicode="&#xe6;" horiz-adv-x="1593" d="M90 201q5 40 25.5 75.5t49 61.5t70 49.5t81.5 40t90 33.5l292 92l37 260q15 101 -24.5 148t-139.5 47q-52 0 -121.5 -26.5t-113.5 -63.5l-2 -21q96 6 124 -57q23 -51 -11 -107q-39 -63 -118 -69h-12q-51 0 -81 34.5t-23 85.5q9 67 77.5 127.5t173 96.5t214.5 36 q207 0 280 -110q76 53 171 81.5t184 28.5q174 0 254 -101q67 -84 38 -195q-31 -119 -154 -198q-185 -117 -480 -85q9 -144 89.5 -224.5t199.5 -80.5q99 0 188.5 50.5t134.5 117.5h21q-51 -144 -177.5 -246t-293.5 -102q-264 0 -377 188q-190 -118 -279 -153t-178 -35 q-112 0 -167.5 62.5t-41.5 158.5zM373 276q-12 -86 24.5 -135t108.5 -49q30 0 51 3t73 24.5t118 64.5q-80 145 -52 348l-139 -49q-85 -30 -129.5 -76t-54.5 -131zM969 481q196 -23 328 110q94 95 117 223q21 114 -28 171q-29 35 -77 35q-53 0 -103 -24t-96 -72.5 t-81.5 -133.5t-51.5 -196q-8 -55 -8 -113z" />
<glyph unicode="&#xe7;" horiz-adv-x="1026" d="M131 506q18 126 79.5 230t147.5 170t186 102t201 36q163 0 238.5 -76t60.5 -186q-7 -54 -48.5 -90.5t-92.5 -36.5q-78 0 -105 60q-24 53 8 108q39 68 131 70q19 1 40 -2l2 20q-51 105 -199 105q-141 0 -241 -117t-129 -324q-28 -203 47.5 -309t220.5 -106 q100 0 176.5 48.5t124.5 119.5h20q-52 -146 -166 -245.5t-276 -102.5l-18 -134q88 0 147 -43.5t49 -113.5q-9 -72 -77 -116t-173 -44q-69 0 -149 25l4 18q66 -16 98 -16q63 0 104 36.5t50 100.5q8 55 -12 94.5t-70 48.5l27 144q-117 2 -204 46t-135 117t-65 165.5t-2 197.5z " />
<glyph unicode="&#xe8;" horiz-adv-x="1015" d="M131 506q18 126 79.5 230t147.5 170t186 102t201 36q168 0 245 -99q66 -84 36 -195q-31 -120 -157 -200q-180 -115 -468 -87q3 -149 78.5 -226t198.5 -77q100 0 176.5 48.5t124.5 119.5h20q-25 -69 -64.5 -129.5t-95 -110.5t-130.5 -79t-160 -29q-120 0 -209.5 43 t-138.5 117t-67 167.5t-3 198.5zM401 479q193 -17 321 117q92 96 113 223q18 111 -32 165q-29 32 -76 32q-108 0 -198.5 -119t-118.5 -322q-9 -53 -9 -96zM463 1495h235l66 -369h-21z" />
<glyph unicode="&#xe9;" horiz-adv-x="1015" d="M131 506q18 126 79.5 230t147.5 170t186 102t201 36q168 0 245 -99q66 -84 36 -195q-31 -120 -157 -200q-180 -115 -468 -87q3 -149 78.5 -226t198.5 -77q100 0 176.5 48.5t124.5 119.5h20q-25 -69 -64.5 -129.5t-95 -110.5t-130.5 -79t-160 -29q-120 0 -209.5 43 t-138.5 117t-67 167.5t-3 198.5zM401 479q193 -17 321 117q92 96 113 223q18 111 -32 165q-29 32 -76 32q-108 0 -198.5 -119t-118.5 -322q-9 -53 -9 -96zM643 1126l188 369h236l-403 -369h-21z" />
<glyph unicode="&#xea;" horiz-adv-x="1015" d="M131 506q18 126 79.5 230t147.5 170t186 102t201 36q168 0 245 -99q66 -84 36 -195q-31 -120 -157 -200q-180 -115 -468 -87q3 -149 78.5 -226t198.5 -77q100 0 176.5 48.5t124.5 119.5h20q-25 -69 -64.5 -129.5t-95 -110.5t-130.5 -79t-160 -29q-120 0 -209.5 43 t-138.5 117t-67 167.5t-3 198.5zM401 479q193 -17 321 117q92 96 113 223q18 111 -32 165q-29 32 -76 32q-108 0 -198.5 -119t-118.5 -322q-9 -53 -9 -96zM442 1126l318 369h20l215 -369h-20l-232 183l-280 -183h-21z" />
<glyph unicode="&#xeb;" horiz-adv-x="1015" d="M131 506q18 126 79.5 230t147.5 170t186 102t201 36q168 0 245 -99q66 -84 36 -195q-31 -120 -157 -200q-180 -115 -468 -87q3 -149 78.5 -226t198.5 -77q100 0 176.5 48.5t124.5 119.5h20q-25 -69 -64.5 -129.5t-95 -110.5t-130.5 -79t-160 -29q-120 0 -209.5 43 t-138.5 117t-67 167.5t-3 198.5zM395 1260q7 55 48 89.5t94 34.5q54 0 83.5 -34.5t22.5 -89.5q-6 -54 -46 -87.5t-95 -33.5q-53 0 -83.5 33t-23.5 88zM401 479q193 -17 321 117q92 96 113 223q18 111 -32 165q-29 32 -76 32q-108 0 -198.5 -119t-118.5 -322q-9 -53 -9 -96z M795 1260q6 54 46.5 89t94.5 35q53 0 83 -34.5t23 -89.5q-7 -54 -47 -87.5t-94 -33.5q-53 0 -83 33t-23 88z" />
<glyph unicode="&#xec;" horiz-adv-x="606" d="M82 936v20q102 44 192 66t142 22q90 0 119 -45.5t16 -138.5l-117 -805l19 -20l194 53v-20q-100 -44 -191 -66t-143 -22q-89 0 -118.5 46t-16.5 138l117 805l-19 20zM170 1495h236l65 -369h-20z" />
<glyph unicode="&#xed;" horiz-adv-x="606" d="M82 936v20q102 44 192 66t142 22q90 0 119 -45.5t16 -138.5l-117 -805l19 -20l194 53v-20q-100 -44 -191 -66t-143 -22q-89 0 -118.5 46t-16.5 138l117 805l-19 20zM393 1126l189 369h235l-403 -369h-21z" />
<glyph unicode="&#xee;" horiz-adv-x="606" d="M82 936v20q102 44 192 66t142 22q90 0 119 -45.5t16 -138.5l-117 -805l19 -20l194 53v-20q-100 -44 -191 -66t-143 -22q-89 0 -118.5 46t-16.5 138l117 805l-19 20zM174 1126l318 369h20l215 -369h-20l-232 183l-280 -183h-21z" />
<glyph unicode="&#xef;" horiz-adv-x="606" d="M82 936v20q102 44 192 66t142 22q90 0 119 -45.5t16 -138.5l-117 -805l19 -20l194 53v-20q-100 -44 -191 -66t-143 -22q-89 0 -118.5 46t-16.5 138l117 805l-19 20zM143 1260q7 55 48 89.5t94 34.5q54 0 83.5 -34.5t22.5 -89.5q-6 -54 -46 -87.5t-95 -33.5 q-53 0 -83.5 33t-23.5 88zM543 1260q6 54 46.5 89t94.5 35q53 0 83.5 -34.5t23.5 -89.5q-7 -54 -47.5 -87.5t-94.5 -33.5q-53 0 -83 33t-23 88z" />
<glyph unicode="&#xf0;" horiz-adv-x="1075" d="M119 453q26 186 149 314t303 128q79 0 144 -27.5t106 -68.5l17 6q10 125 -19 240t-92 204l-240 -145l-14 24l238 144q-98 124 -244 162l6 20q175 -37 315 -135l263 158l12 -25l-250 -152q163 -127 239.5 -323.5t43.5 -429.5q-22 -156 -96 -283t-197 -205.5t-273 -78.5 q-92 0 -173.5 34t-139.5 94t-85.5 150t-12.5 195zM394.5 210.5q2.5 -95.5 37.5 -153t100 -57.5q85 0 153.5 114.5t104.5 282t41 351.5q-31 40 -75.5 69t-93.5 29q-69 0 -123 -61t-84 -150.5t-47 -204.5q-16 -124 -13.5 -219.5z" />
<glyph unicode="&#xf1;" horiz-adv-x="1179" d="M82 936v20q102 44 192 66t142 22q170 0 123 -184l-50 -215h21q50 143 119.5 234.5t140.5 128t150 36.5q228 0 186 -307l-96 -682l18 -20l193 53v-20q-100 -44 -191 -66t-143 -22q-89 0 -118.5 46t-16.5 138l92 649q11 75 -3 109t-59 34q-36 0 -78 -35.5t-85.5 -103.5 t-81.5 -185.5t-58 -264.5l-49 -367h-272l133 969l-19 20zM430 1188q25 40 52.5 77.5t64.5 80t76.5 68.5t72.5 26q38 0 89 -18.5t93 -41t95.5 -41t95.5 -18.5q34 0 62 12t43 25t47 45l8 -10q-148 -232 -254 -232q-51 0 -121 30t-139.5 59.5t-120.5 29.5q-21 0 -38.5 -4.5 t-35.5 -18t-26 -20.5t-29 -30t-27 -29z" />
<glyph unicode="&#xf2;" horiz-adv-x="1097" d="M133 512q35 245 187.5 388.5t365.5 143.5q214 0 327.5 -144t78.5 -388t-188 -388t-367 -144t-326.5 144t-77.5 388zM414 138.5q26 -138.5 127 -138.5t162.5 131t97.5 381q21 158 21.5 272t-33.5 177t-105 63q-100 0 -162 -132t-96 -380q-38 -235 -12 -373.5zM473 1495 h236l65 -369h-20z" />
<glyph unicode="&#xf3;" horiz-adv-x="1097" d="M133 512q35 245 187.5 388.5t365.5 143.5q214 0 327.5 -144t78.5 -388t-188 -388t-367 -144t-326.5 144t-77.5 388zM414 138.5q26 -138.5 127 -138.5t162.5 131t97.5 381q21 158 21.5 272t-33.5 177t-105 63q-100 0 -162 -132t-96 -380q-38 -235 -12 -373.5zM674 1126 l188 369h236l-404 -369h-20z" />
<glyph unicode="&#xf4;" horiz-adv-x="1097" d="M133 512q35 245 187.5 388.5t365.5 143.5q214 0 327.5 -144t78.5 -388t-188 -388t-367 -144t-326.5 144t-77.5 388zM414 138.5q26 -138.5 127 -138.5t162.5 131t97.5 381q21 158 21.5 272t-33.5 177t-105 63q-100 0 -162 -132t-96 -380q-38 -235 -12 -373.5zM459 1126 l317 369h21l215 -369h-21l-231 183l-281 -183h-20z" />
<glyph unicode="&#xf5;" horiz-adv-x="1097" d="M133 512q35 245 187.5 388.5t365.5 143.5q214 0 327.5 -144t78.5 -388t-188 -388t-367 -144t-326.5 144t-77.5 388zM356 1188q25 40 53 78t65 80t76.5 68t72.5 26q48 0 114.5 -30t135.5 -59.5t122 -29.5q34 0 62 12t43 25t47 45l8 -10q-148 -232 -254 -232q-51 0 -121 30 t-139.5 59.5t-120.5 29.5q-21 0 -38.5 -4.5t-35 -17.5t-26 -21t-28.5 -30t-27 -29zM414 138.5q26 -138.5 127 -138.5t162.5 131t97.5 381q21 158 21.5 272t-33.5 177t-105 63q-100 0 -162 -132t-96 -380q-38 -235 -12 -373.5z" />
<glyph unicode="&#xf6;" horiz-adv-x="1097" d="M133 512q35 245 187.5 388.5t365.5 143.5q214 0 327.5 -144t78.5 -388t-188 -388t-367 -144t-326.5 144t-77.5 388zM414 138.5q26 -138.5 127 -138.5t162.5 131t97.5 381q21 158 21.5 272t-33.5 177t-105 63q-100 0 -162 -132t-96 -380q-38 -235 -12 -373.5zM436 1260 q7 55 48 89.5t94 34.5q54 0 83.5 -34.5t22.5 -89.5q-6 -54 -46 -87.5t-95 -33.5q-53 0 -83.5 33t-23.5 88zM836 1260q6 54 46.5 89t94.5 35q53 0 83 -34.5t23 -89.5q-7 -54 -47 -87.5t-94 -33.5q-53 0 -83 33t-23 88z" />
<glyph unicode="&#xf7;" d="M264 537l4 20h766l-4 -20h-766zM520 248q4 42 36.5 71t74.5 29q41 0 65.5 -28.5t20.5 -71.5q-6 -41 -38.5 -68.5t-74.5 -27.5q-41 0 -65.5 27.5t-18.5 68.5zM602 844q6 43 39 71.5t74 28.5t65.5 -28.5t18.5 -71.5q-4 -41 -36.5 -68.5t-74.5 -27.5q-41 0 -65.5 27.5 t-20.5 68.5z" />
<glyph unicode="&#xf8;" horiz-adv-x="1097" d="M66 16l131 123q-100 145 -66 373q35 245 187.5 388.5t365.5 143.5q211 0 322 -139l127 119l10 -16l-125 -119q106 -144 72 -377q-35 -244 -188 -388t-367 -144t-326 143l-129 -123zM403 307q-6 -151 25.5 -229t110.5 -78q101 0 162.5 131t97.5 381q16 138 18 186z M403 336l416 393q5 145 -26.5 220t-110.5 75q-100 0 -162 -132t-96 -380q-15 -93 -21 -176z" />
<glyph unicode="&#xf9;" horiz-adv-x="1179" d="M82 936v20q102 44 192 66t142 22q90 0 119 -45.5t16 -138.5l-92 -649q-9 -76 4 -109.5t57 -33.5q36 0 78.5 35.5t85.5 103.5t81 185.5t58 264.5l51 367h273l-135 -969l18 -20l191 53v-20q-101 -44 -190.5 -66t-141.5 -22q-91 0 -119.5 47.5t-5.5 136.5l51 215h-20 q-75 -210 -182 -304.5t-230 -94.5q-229 0 -184 307l94 682l-19 20zM457 1495h235l66 -369h-21z" />
<glyph unicode="&#xfa;" horiz-adv-x="1179" d="M82 936v20q102 44 192 66t142 22q90 0 119 -45.5t16 -138.5l-92 -649q-9 -76 4 -109.5t57 -33.5q36 0 78.5 35.5t85.5 103.5t81 185.5t58 264.5l51 367h273l-135 -969l18 -20l191 53v-20q-101 -44 -190.5 -66t-141.5 -22q-91 0 -119.5 47.5t-5.5 136.5l51 215h-20 q-75 -210 -182 -304.5t-230 -94.5q-229 0 -184 307l94 682l-19 20zM670 1126l188 369h236l-404 -369h-20z" />
<glyph unicode="&#xfb;" horiz-adv-x="1179" d="M82 936v20q102 44 192 66t142 22q90 0 119 -45.5t16 -138.5l-92 -649q-9 -76 4 -109.5t57 -33.5q36 0 78.5 35.5t85.5 103.5t81 185.5t58 264.5l51 367h273l-135 -969l18 -20l191 53v-20q-101 -44 -190.5 -66t-141.5 -22q-91 0 -119.5 47.5t-5.5 136.5l51 215h-20 q-75 -210 -182 -304.5t-230 -94.5q-229 0 -184 307l94 682l-19 20zM446 1126l318 369h20l215 -369h-20l-231 183l-281 -183h-21z" />
<glyph unicode="&#xfc;" horiz-adv-x="1179" d="M82 936v20q102 44 192 66t142 22q90 0 119 -45.5t16 -138.5l-92 -649q-9 -76 4 -109.5t57 -33.5q36 0 78.5 35.5t85.5 103.5t81 185.5t58 264.5l51 367h273l-135 -969l18 -20l191 53v-20q-101 -44 -190.5 -66t-141.5 -22q-91 0 -119.5 47.5t-5.5 136.5l51 215h-20 q-75 -210 -182 -304.5t-230 -94.5q-229 0 -184 307l94 682l-19 20zM446 1260q7 55 48 89.5t94 34.5q54 0 83.5 -34.5t22.5 -89.5q-6 -54 -46 -87.5t-95 -33.5q-53 0 -83.5 33t-23.5 88zM846 1260q6 54 46.5 89t94.5 35q53 0 83.5 -34.5t23.5 -89.5q-7 -54 -47.5 -87.5 t-94.5 -33.5q-53 0 -83 33t-23 88z" />
<glyph unicode="&#xfd;" horiz-adv-x="1087" d="M-106 -322q10 64 72 94q60 28 113 2q66 -34 53 -130q-3 -29 -15 -62h20q63 0 162 79t190 204l-270 1093l-18 21l-160 -43v20q205 88 324 88q91 0 128.5 -40.5t57.5 -139.5l123 -700h20q62 94 89 137t86 140.5t97 177.5t60 149v20q-143 -20 -198 54q-38 52 -14 116 q23 61 84 80q21 6 44 6q66 0 105.5 -43t39.5 -110q0 -217 -501 -946q-63 -93 -121 -162t-126.5 -129.5t-143 -92.5t-152.5 -32q-80 0 -119.5 44.5t-29.5 104.5zM676 1126l188 369h236l-404 -369h-20z" />
<glyph unicode="&#xfe;" horiz-adv-x="1167" d="M-47 -451l2 21l141 10l264 1874h-174v21l432 20h21l-129 -745h20q53 134 135 214t191 80q165 0 251 -151.5t48 -380.5q-27 -161 -117.5 -284t-215.5 -185.5t-263 -62.5q-61 0 -129 18l-61 -418l143 -10l-2 -21h-557zM434 41q56 -41 129 -41q99 0 188.5 144.5t122.5 367.5 q30 198 -3.5 316t-112.5 118q-90 0 -158 -110t-94 -297z" />
<glyph unicode="&#xff;" horiz-adv-x="1087" d="M-106 -322q10 64 72 94q60 28 113 2q66 -34 53 -130q-3 -29 -15 -62h20q63 0 162 79t190 204l-270 1093l-18 21l-160 -43v20q205 88 324 88q91 0 128.5 -40.5t57.5 -139.5l123 -700h20q62 94 89 137t86 140.5t97 177.5t60 149v20q-143 -20 -198 54q-38 52 -14 116 q23 61 84 80q21 6 44 6q66 0 105.5 -43t39.5 -110q0 -217 -501 -946q-63 -93 -121 -162t-126.5 -129.5t-143 -92.5t-152.5 -32q-80 0 -119.5 44.5t-29.5 104.5zM438 1260q7 55 48 89.5t94 34.5q54 0 83.5 -34.5t22.5 -89.5q-6 -54 -46 -87.5t-95 -33.5q-53 0 -83.5 33 t-23.5 88zM838 1260q6 54 46.5 89t94.5 35q53 0 83 -34.5t23 -89.5q-7 -54 -47 -87.5t-94 -33.5q-53 0 -83 33t-23 88z" />
<glyph unicode="&#x152;" horiz-adv-x="1986" d="M176 717q22 157 100 296t190 234.5t252 151t283 55.5q82 0 150 -20h928l-39 -342h-21l-145 311l-408 10l-96 -686l295 8l133 242h21l-72 -510h-21l-65 231l-293 9l-96 -687l430 11l242 311h20l-66 -342h-948q-75 -20 -155 -20q-143 0 -267.5 55.5t-209.5 151 t-124.5 234.5t-17.5 296zM469 717q-51 -346 36.5 -531.5t293.5 -185.5q112 0 166 85t82 269l100 723q26 185 -5 271t-143 86q-206 0 -344.5 -185.5t-185.5 -531.5z" />
<glyph unicode="&#x153;" horiz-adv-x="1708" d="M131 512q35 245 187.5 388.5t365.5 143.5q110 0 197 -41t141 -118q88 77 197.5 118t218.5 41q167 0 244 -99q65 -84 36 -195q-32 -119 -156 -199q-181 -116 -470 -88q4 -149 78.5 -226t197.5 -77q186 0 303 168h21q-55 -148 -171.5 -248t-281.5 -100q-224 0 -338 143 q-152 -143 -366 -143t-326.5 144t-77.5 388zM412 138.5q26 -138.5 127 -138.5t162.5 131t97.5 381q21 158 21.5 272t-33.5 177t-105 63q-100 0 -162 -132t-96 -380q-38 -235 -12 -373.5zM1092 479q194 -17 322 117q91 96 112 223q18 111 -32 165q-28 32 -75 32 q-109 0 -199 -119t-120 -322q-8 -47 -8 -96z" />
<glyph unicode="&#x178;" horiz-adv-x="1392" d="M203 1413l4 21h567l-4 -21l-133 -10l262 -766h21l403 690l-199 86l4 21h459l-4 -21l-219 -86l-440 -735l-78 -561l143 -11l-2 -20h-561l2 20l147 11l66 467l-322 905zM606 1669q7 55 48 90t94 35q54 0 83.5 -35t22.5 -90q-6 -54 -46 -87.5t-95 -33.5q-53 0 -83.5 33 t-23.5 88zM1006 1669q7 55 47.5 90t93.5 35t83 -35t23 -90q-7 -54 -47 -87.5t-94 -33.5q-53 0 -83 33t-23 88z" />
<glyph unicode="&#x2c6;" horiz-adv-x="962" d="M362 1126l318 369h20l215 -369h-20l-231 183l-281 -183h-21z" />
<glyph unicode="&#x2dc;" horiz-adv-x="1126" d="M344 1188q25 40 52.5 77.5t64.5 80t76.5 68.5t72.5 26q38 0 89 -18.5t93 -41t95.5 -41t95.5 -18.5q34 0 62 12t43 25t47 45l8 -10q-148 -232 -254 -232q-51 0 -121 30t-139.5 59.5t-120.5 29.5q-21 0 -38.5 -4.5t-35.5 -18t-26 -20.5t-29 -30t-27 -29z" />
<glyph unicode="&#x2000;" horiz-adv-x="952" />
<glyph unicode="&#x2001;" horiz-adv-x="1905" />
<glyph unicode="&#x2002;" horiz-adv-x="952" />
<glyph unicode="&#x2003;" horiz-adv-x="1905" />
<glyph unicode="&#x2004;" horiz-adv-x="635" />
<glyph unicode="&#x2005;" horiz-adv-x="476" />
<glyph unicode="&#x2006;" horiz-adv-x="317" />
<glyph unicode="&#x2007;" horiz-adv-x="317" />
<glyph unicode="&#x2008;" horiz-adv-x="238" />
<glyph unicode="&#x2009;" horiz-adv-x="381" />
<glyph unicode="&#x200a;" horiz-adv-x="105" />
<glyph unicode="&#x2010;" d="M264 532l4 31h766l-4 -31h-766z" />
<glyph unicode="&#x2011;" d="M264 532l4 31h766l-4 -31h-766z" />
<glyph unicode="&#x2012;" d="M264 532l4 31h766l-4 -31h-766z" />
<glyph unicode="&#x2013;" horiz-adv-x="1249" d="M264 532l4 31h869l-4 -31h-869z" />
<glyph unicode="&#x2014;" horiz-adv-x="1843" d="M264 532l4 31h1463l-5 -31h-1462z" />
<glyph unicode="&#x2018;" horiz-adv-x="686" d="M346 1106q19 138 121.5 245.5t210.5 147.5l6 -20q-106 -38 -172 -125q-64 -85 -40 -151q30 -79 179 -79l-33 -231q-82 -11 -141 2.5t-88 46t-39.5 74t-3.5 90.5z" />
<glyph unicode="&#x2019;" horiz-adv-x="686" d="M332 883q106 38 172 125q64 84 40 149q-30 78 -179 78l32 233q82 11 141 -2.5t88.5 -46.5t40 -74t3.5 -90q-19 -138 -122 -246.5t-210 -146.5z" />
<glyph unicode="&#x201a;" horiz-adv-x="686" d="M162 -326q106 38 172 124q64 84 40 150q-29 79 -179 79l32 233q82 11 141 -2.5t88.5 -46.5t40 -74t3.5 -90q-19 -138 -122 -246.5t-210 -146.5z" />
<glyph unicode="&#x201c;" horiz-adv-x="1136" d="M346 1106q19 138 121.5 245.5t210.5 147.5l6 -20q-106 -38 -172 -125q-64 -85 -40 -151q30 -79 179 -79l-33 -231q-82 -11 -141 2.5t-88 46t-39.5 74t-3.5 90.5zM797 1106q19 138 121 245.5t210 147.5l7 -20q-106 -38 -172 -125q-64 -85 -40 -151q30 -79 179 -79 l-33 -231q-82 -11 -141 2.5t-88 46t-39.5 74t-3.5 90.5z" />
<glyph unicode="&#x201d;" horiz-adv-x="1136" d="M332 883q106 38 172 125q64 84 40 149q-30 78 -179 78l32 233q82 11 141 -2.5t88.5 -46.5t40 -74t3.5 -90q-19 -138 -122 -246.5t-210 -146.5zM782 883q106 38 172 125q64 84 40 149q-30 78 -179 78l33 233q82 11 141 -2.5t88 -46.5t39.5 -74t3.5 -90 q-19 -138 -122 -246.5t-210 -146.5z" />
<glyph unicode="&#x201e;" horiz-adv-x="1136" d="M162 -326q106 38 172 124q64 84 40 150q-29 79 -179 79l32 233q82 11 141 -2.5t88.5 -46.5t40 -74t3.5 -90q-19 -138 -122 -246.5t-210 -146.5zM612 -326q106 38 172 124q64 84 40 150q-29 79 -179 79l33 233q82 11 141 -2.5t88 -46.5t39.5 -74t3.5 -90 q-19 -138 -122 -246.5t-210 -146.5z" />
<glyph unicode="&#x2022;" horiz-adv-x="813" d="M270 475q12 85 78.5 144t151.5 59t135.5 -59t38.5 -144t-79.5 -143t-152.5 -58t-134.5 58t-37.5 143z" />
<glyph unicode="&#x2026;" horiz-adv-x="1603" d="M201 102q6 51 47 87t92 36t81.5 -36t24.5 -87q-7 -51 -48.5 -86.5t-92.5 -35.5t-81.5 35.5t-22.5 86.5zM692 102q6 51 47 87t92 36t82 -36t25 -87q-7 -51 -48.5 -86.5t-92.5 -35.5t-81.5 35.5t-23.5 86.5zM1184 102q6 51 47 87t92 36t82 -36t25 -87q-7 -51 -49 -86.5 t-93 -35.5t-81.5 35.5t-22.5 86.5z" />
<glyph unicode="&#x202f;" horiz-adv-x="381" />
<glyph unicode="&#x2039;" horiz-adv-x="880" d="M264 528l6 41l553 379l-4 -20l-254 -377l148 -381l-2 -20z" />
<glyph unicode="&#x203a;" horiz-adv-x="880" d="M211 150l2 20l268 383l-162 375l5 20l446 -377l-6 -41z" />
<glyph unicode="&#x205f;" horiz-adv-x="476" />
<glyph unicode="&#x20ac;" horiz-adv-x="1484" d="M188 573l2 21h160q0 51 10 123q4 43 23 112h-160l4 21h160q77 271 285 437.5t493 166.5q104 0 184.5 -23.5t126 -62.5t66 -84.5t14.5 -93.5q-8 -55 -47.5 -93t-97.5 -38q-77 0 -103 59q-24 54 9 110q41 69 134 73l32 -1l2 21q-113 113 -322 113q-176 0 -302 -151.5 t-185 -432.5h379l-4 -21h-379q-1 -8 -9 -48.5t-10 -63.5q-5 -37 -14 -123h379l-2 -21h-379q-17 -277 67 -425t259 -148q210 0 352 113l4 20q-104 -9 -138 51.5t9 125.5t125 65q58 0 86 -38t22 -93q-7 -48 -40.5 -93.5t-89.5 -84.5t-143.5 -62.5t-191.5 -23.5 q-283 0 -444 163t-164 430h-162z" />
<glyph unicode="&#x2122;" horiz-adv-x="1730" d="M293 1264l29 170h557l-19 -170h-14l-60 147l-120 6l-97 -686l70 -4v-10h-279v10l74 4l96 686l-127 -6l-96 -147h-14zM883 717v10l110 4l97 688l-109 4l2 11h227l142 -545h10l248 545h205l-3 -11l-71 -4l-96 -688l69 -4v-10h-278v10l73 4l82 600h-10l-278 -620h-43 l-160 606h-10l-76 -586l106 -4v-10h-237z" />
<glyph unicode="&#x25fc;" horiz-adv-x="1044" d="M0 0v1044h1044v-1044h-1044z" />
</font>
</defs>
</svg>
